<?xml version="1.0" encoding="utf-8"?>
<!-- Generator: Adobe Illustrator 16.0.0, SVG Export Plug-In . SVG Version: 6.00 Build 0)  -->
<!DOCTYPE svg PUBLIC "-//W3C//DTD SVG 1.1//EN" "http://www.w3.org/Graphics/SVG/1.1/DTD/svg11.dtd">
<svg version="1.1" id="Layer_1" xmlns="http://www.w3.org/2000/svg" xmlns:xlink="http://www.w3.org/1999/xlink" x="0px" y="0px"
	 width="169.507px" height="50.66px" viewBox="0 0 169.507 50.66" enable-background="new 0 0 169.507 50.66" xml:space="preserve">
<g id="Logo_1_">
	<g id="Logo">
		<path fill="#F1F2F2" d="M24.638,39.044l0.231-0.017c0.004,0,0.008-0.002,0.011-0.002l0.271-0.021
			c2.122-0.154,3.701-0.781,4.738-1.884c1.035-1.103,1.48-2.657,1.335-4.665l-1.297-17.844c-0.142-1.971-0.808-3.441-1.995-4.421
			c-1.188-0.978-2.841-1.39-4.964-1.235l-3.691,0.268l2.039,28.08L12.484,37.9L9.995,3.624L4.754,6.689l5.61,37.72l2.529,1.502
			l0.172-0.015l-0.438-6.041L24.638,39.044z"/>
		<path fill="#F1F2F2" d="M52.255,9.617c0.332-0.109,0.792-0.186,1.384-0.229c0.703-0.053,1.378,0.006,2.026,0.172
			c0.584,0.15,1.107,0.392,1.578,0.715l-0.456-6.271l-4.627,5.49L52.255,9.617z"/>
		<path fill="#F1F2F2" d="M58.182,23.224c-0.173,0.197-0.362,0.388-0.568,0.562c-1.468,1.239-3.465,1.952-5.996,2.135
			c-1.604,0.116-2.947,0.021-4.03-0.285s-1.962-0.75-2.643-1.33c-0.678-0.582-1.172-1.264-1.483-2.041
			c-0.312-0.781-0.498-1.596-0.56-2.446c-0.037-0.532-0.02-1.067,0.054-1.608c0.072-0.539,0.192-1.061,0.353-1.563l4.769-0.347
			c-0.092,0.306-0.155,0.695-0.191,1.168c-0.036,0.474-0.033,0.986,0.006,1.539c0.029,0.404,0.106,0.799,0.234,1.187
			c0.128,0.388,0.328,0.72,0.604,1c0.274,0.278,0.637,0.498,1.087,0.657c0.449,0.16,0.999,0.216,1.645,0.171
			c0.984-0.072,1.736-0.335,2.255-0.789c0.518-0.454,0.743-1.161,0.674-2.117l-0.372-5.104c-0.051-0.701-0.357-1.221-0.918-1.555
			c-0.562-0.332-1.166-0.476-1.812-0.429c-0.958,0.069-1.875,0.308-2.75,0.711l-1.764,0.804l-0.204-2.808l5.274-6.801L42.9,4.583
			l-0.233-3.217L27.599,2.405c0.435,0.058,0.86,0.126,1.275,0.209c1.944,0.392,3.631,1.065,5.059,2.025
			c1.427,0.96,2.573,2.233,3.443,3.823c0.865,1.586,1.381,3.493,1.543,5.719l1.255,17.295c0.164,2.265-0.067,4.241-0.696,5.938
			c-0.629,1.697-1.58,3.122-2.854,4.279c-1.274,1.156-2.845,2.067-4.712,2.733c-0.058,0.021-0.118,0.039-0.177,0.06l27.843-2.098
			L58.182,23.224z"/>
	</g>
	<g enable-background="new    ">
		<path fill="#F1F2F2" d="M68.566,18.232l-0.625,4.207h-2.68l2.901-18.301h3.541l2.86,18.301h-2.707l-0.602-4.207H68.566z
			 M69.918,8.329l-0.953,7.215h1.907L69.918,8.329z"/>
	</g>
	<g enable-background="new    ">
		<path fill="#F1F2F2" d="M80.773,4.138c1.435,0,2.488,0.423,3.16,1.271c0.59,0.74,0.885,1.772,0.885,3.096v2.658
			c0,1.295-0.458,2.391-1.375,3.287l1.906,7.989h-2.784l-1.561-6.894c-0.073,0-0.149,0-0.231,0h-1.484v6.894h-2.574V4.138H80.773z
			 M82.312,8.548c0-1.061-0.49-1.592-1.471-1.592h-1.553v5.857h1.553c0.408,0,0.756-0.156,1.042-0.468
			c0.286-0.312,0.429-0.686,0.429-1.125V8.548z"/>
	</g>
	<g enable-background="new    ">
		<path fill="#F1F2F2" d="M89.455,6.913h-2.738V4.138h8.035v2.775h-2.724v15.526h-2.573V6.913z"/>
		<path fill="#F1F2F2" d="M101.861,12.463h3.432v2.044h-3.432v3.681h-1.907v-3.681h-3.432v-2.044h3.432V8.782h1.907V12.463z"/>
	</g>
	<g enable-background="new    ">
		<path fill="#F1F2F2" d="M116.923,18.057c0,1.208-0.395,2.24-1.186,3.097c-0.789,0.857-1.742,1.285-2.859,1.285h-4.045V4.123h4.045
			c1.126,0,2.082,0.428,2.867,1.285s1.178,1.884,1.178,3.082V18.057z M111.408,19.707h1.553c0.408,0,0.754-0.158,1.035-0.475
			s0.422-0.688,0.422-1.117V8.534c0-0.438-0.143-0.813-0.43-1.125c-0.285-0.312-0.628-0.467-1.027-0.467h-1.553V19.707z"/>
	</g>
	<g enable-background="new    ">
		<path fill="#F1F2F2" d="M119.171,22.438V4.123h7.327v2.775h-4.753v4.995h3.473v2.775h-3.473v4.995h4.753v2.775H119.171z"/>
	</g>
	<g enable-background="new    ">
		<path fill="#F1F2F2" d="M136.781,17.881c0.018,1.276-0.291,2.366-0.926,3.272c-0.418,0.613-1.008,1.047-1.771,1.3
			c-0.409,0.136-0.886,0.205-1.43,0.205c-1.008,0-1.843-0.268-2.506-0.804c-0.554-0.438-0.992-1.034-1.314-1.789
			c-0.322-0.754-0.511-1.619-0.565-2.592l2.451-0.19c0.109,1.067,0.373,1.84,0.791,2.319c0.309,0.362,0.662,0.534,1.062,0.514
			c0.563-0.02,1.013-0.317,1.349-0.892c0.172-0.282,0.258-0.687,0.258-1.213c0-0.76-0.322-1.516-0.967-2.266
			c-0.508-0.517-1.271-1.291-2.287-2.324c-0.854-0.887-1.457-1.681-1.812-2.383c-0.382-0.789-0.571-1.647-0.571-2.573
			c0-1.667,0.521-2.929,1.565-3.786c0.645-0.517,1.443-0.775,2.397-0.775c0.916,0,1.701,0.219,2.355,0.657
			c0.508,0.341,0.919,0.818,1.232,1.431c0.312,0.614,0.502,1.32,0.564,2.118l-2.465,0.482c-0.072-0.75-0.271-1.334-0.599-1.753
			c-0.236-0.302-0.577-0.453-1.021-0.453c-0.472,0-0.831,0.224-1.075,0.672c-0.2,0.36-0.301,0.809-0.301,1.344
			c0,0.837,0.336,1.689,1.008,2.556c0.255,0.331,0.636,0.721,1.145,1.168c0.6,0.536,0.994,0.911,1.186,1.125
			c0.635,0.682,1.125,1.354,1.471,2.016c0.162,0.312,0.295,0.599,0.395,0.862C136.645,16.781,136.772,17.366,136.781,17.881z"/>
	</g>
	<g enable-background="new    ">
		<path fill="#F1F2F2" d="M141.488,22.438h-2.574V4.138h2.574V22.438z"/>
	</g>
	<g enable-background="new    ">
		<path fill="#F1F2F2" d="M147.843,22.672c-1.135,0-2.1-0.429-2.895-1.286c-0.794-0.856-1.191-1.884-1.191-3.082v-9.99
			c0-1.217,0.4-2.252,1.199-3.104s1.761-1.278,2.887-1.278c1.135,0,2.098,0.429,2.887,1.285c0.79,0.857,1.186,1.889,1.186,3.097
			v2.088h-2.67V8.256c0-0.438-0.145-0.813-0.436-1.125s-0.641-0.468-1.049-0.468s-0.756,0.156-1.041,0.468
			c-0.287,0.312-0.43,0.687-0.43,1.125v10.02c0,0.438,0.143,0.811,0.43,1.117c0.285,0.307,0.633,0.46,1.041,0.46
			s0.758-0.153,1.049-0.458s0.436-0.677,0.436-1.114v-3.598h-1.43v-2.775h4.1v6.397c0,1.217-0.4,2.249-1.199,3.096
			S148.96,22.672,147.843,22.672z"/>
	</g>
	<g enable-background="new    ">
		<path fill="#F1F2F2" d="M157.035,4.123l3.415,12.309V4.123h2.574v18.315h-2.765l-3.541-11.729v11.729h-2.573V4.123H157.035z"/>
	</g>
	<g enable-background="new    ">
		<path fill="#F1F2F2" d="M67.501,35.662c-0.516,0-0.954-0.185-1.314-0.553c-0.361-0.368-0.541-0.813-0.541-1.335v-4.317
			c0-0.525,0.181-0.973,0.544-1.342c0.363-0.367,0.8-0.552,1.311-0.552c0.515,0,0.952,0.185,1.311,0.556
			c0.358,0.37,0.538,0.816,0.538,1.338v0.902h-1.211v-0.928c0-0.189-0.066-0.352-0.198-0.486c-0.132-0.135-0.291-0.201-0.476-0.201
			c-0.186,0-0.343,0.066-0.473,0.201s-0.195,0.297-0.195,0.486v4.33c0,0.189,0.065,0.35,0.195,0.482s0.288,0.199,0.473,0.199
			c0.185,0,0.344-0.066,0.476-0.199c0.132-0.133,0.198-0.293,0.198-0.482V32.67h1.211v1.104c0,0.526-0.181,0.972-0.544,1.338
			S68.008,35.662,67.501,35.662z"/>
	</g>
	<g enable-background="new    ">
		<path fill="#F1F2F2" d="M72.786,27.551c0.515,0,0.953,0.186,1.314,0.555c0.36,0.371,0.541,0.816,0.541,1.339v4.317
			c0,0.525-0.181,0.973-0.544,1.342c-0.363,0.367-0.8,0.552-1.311,0.552c-0.515,0-0.952-0.185-1.311-0.556
			c-0.359-0.37-0.538-0.816-0.538-1.338v-4.317c0-0.526,0.181-0.974,0.544-1.341C71.844,27.734,72.279,27.551,72.786,27.551z
			 M73.422,29.419c0-0.189-0.065-0.351-0.195-0.483c-0.13-0.132-0.288-0.198-0.473-0.198c-0.186,0-0.344,0.066-0.476,0.198
			c-0.132,0.133-0.198,0.294-0.198,0.483v4.33c0,0.189,0.066,0.351,0.198,0.483c0.132,0.132,0.291,0.198,0.476,0.198
			c0.185,0,0.343-0.066,0.473-0.198c0.13-0.133,0.195-0.294,0.195-0.483V29.419z"/>
	</g>
	<g enable-background="new    ">
		<path fill="#F1F2F2" d="M77.627,27.646l1.55,5.319v-5.319h1.169v7.915h-1.255l-1.607-5.068v5.068h-1.168v-7.915H77.627z"/>
	</g>
	<g enable-background="new    ">
		<path fill="#F1F2F2" d="M83.207,35.561h-1.168v-7.915h3.327v1.199h-2.158v2.159h1.577v1.199h-1.577V35.561z"/>
		<path fill="#F1F2F2" d="M86.167,35.561v-7.915h3.326v1.199h-2.157v2.159h1.577v1.199h-1.577v2.158h2.157v1.199H86.167z"/>
	</g>
	<g enable-background="new    ">
		<path fill="#F1F2F2" d="M93.427,27.652c0.652,0,1.13,0.183,1.436,0.549c0.268,0.319,0.401,0.766,0.401,1.338v1.148
			c0,0.561-0.208,1.033-0.624,1.42l0.865,3.453h-1.264l-0.709-2.979c-0.033,0-0.068,0-0.105,0h-0.674v2.979h-1.168v-7.908H93.427z
			 M94.126,29.559c0-0.459-0.223-0.688-0.668-0.688h-0.705v2.53h0.705c0.186,0,0.344-0.066,0.473-0.201
			c0.131-0.135,0.195-0.297,0.195-0.486V29.559z"/>
	</g>
	<g enable-background="new    ">
		<path fill="#F1F2F2" d="M97.153,35.561v-7.915h3.326v1.199h-2.157v2.159h1.576v1.199h-1.576v2.158h2.157v1.199H97.153z"/>
	</g>
	<g enable-background="new    ">
		<path fill="#F1F2F2" d="M103.24,27.646l1.55,5.319v-5.319h1.169v7.915h-1.256l-1.607-5.068v5.068h-1.168v-7.915H103.24z"/>
	</g>
	<g enable-background="new    ">
		<path fill="#F1F2F2" d="M109.488,35.662c-0.516,0-0.953-0.185-1.313-0.553s-0.541-0.813-0.541-1.335v-4.317
			c0-0.525,0.181-0.973,0.544-1.342c0.363-0.367,0.8-0.552,1.311-0.552c0.516,0,0.952,0.185,1.311,0.556
			c0.359,0.37,0.538,0.816,0.538,1.338v0.902h-1.212v-0.928c0-0.189-0.065-0.352-0.197-0.486c-0.133-0.135-0.291-0.201-0.477-0.201
			s-0.343,0.066-0.473,0.201s-0.195,0.297-0.195,0.486v4.33c0,0.189,0.065,0.35,0.195,0.482s0.287,0.199,0.473,0.199
			s0.344-0.066,0.477-0.199c0.132-0.133,0.197-0.293,0.197-0.482V32.67h1.212v1.104c0,0.526-0.181,0.972-0.544,1.338
			S109.996,35.662,109.488,35.662z"/>
	</g>
	<g enable-background="new    ">
		<path fill="#F1F2F2" d="M112.942,35.561v-7.915h3.326v1.199h-2.157v2.159h1.576v1.199h-1.576v2.158h2.157v1.199H112.942z"/>
	</g>
	<g enable-background="new    ">
		<path fill="#F1F2F2" d="M78.647,44.409l-0.284,1.817h-1.217l1.317-7.908h1.607l1.298,7.908h-1.229l-0.273-1.817H78.647z
			 M79.261,40.13l-0.433,3.118h0.866L79.261,40.13z"/>
	</g>
	<g enable-background="new    ">
		<path fill="#F1F2F2" d="M84.312,38.312l1.551,5.319v-5.319h1.168v7.915h-1.255l-1.607-5.068v5.068H83v-7.915H84.312z"/>
	</g>
	<g enable-background="new    ">
		<path fill="#F1F2F2" d="M92.394,44.333c0,0.522-0.179,0.968-0.537,1.338c-0.359,0.371-0.791,0.556-1.299,0.556h-1.836v-7.915
			h1.836c0.512,0,0.945,0.186,1.302,0.556s0.534,0.814,0.534,1.332V44.333z M89.89,45.047h0.705c0.186,0,0.342-0.068,0.471-0.205
			c0.127-0.137,0.191-0.298,0.191-0.483v-4.141c0-0.189-0.065-0.352-0.195-0.486c-0.129-0.134-0.285-0.201-0.467-0.201H89.89V45.047
			z"/>
	</g>
	<g enable-background="new    ">
		<path fill="#F1F2F2" d="M105.822,46.227h-1.255l-0.897-2.519l-0.902,2.519h-1.255l1.521-3.977l-1.521-3.932h1.292l0.865,2.442
			l0.859-2.442h1.293L104.3,42.25L105.822,46.227z"/>
	</g>
	<g enable-background="new    ">
		<path fill="#F1F2F2" d="M96.763,46.227v-7.915h3.326v1.199h-2.158v2.159h1.577v1.199h-1.577v2.158h2.158v1.199H96.763z"/>
	</g>
	<g enable-background="new    ">
		<path fill="#F1F2F2" d="M109.289,38.318c0.568,0,1.021,0.183,1.359,0.549c0.313,0.35,0.471,0.795,0.471,1.338v1.148
			c0,0.522-0.179,0.969-0.535,1.339s-0.788,0.556-1.295,0.556h-0.674v2.979h-1.169v-7.908H109.289z M109.987,40.225
			c0-0.207-0.062-0.373-0.183-0.499s-0.283-0.189-0.484-0.189h-0.705v2.531h0.705c0.185,0,0.342-0.067,0.473-0.202
			c0.129-0.135,0.194-0.297,0.194-0.486V40.225z"/>
	</g>
	<g enable-background="new    ">
		<path fill="#F1F2F2" d="M114.413,38.217c0.515,0,0.953,0.186,1.313,0.556c0.361,0.37,0.541,0.816,0.541,1.338v4.317
			c0,0.526-0.182,0.974-0.544,1.342s-0.8,0.552-1.311,0.552c-0.515,0-0.952-0.185-1.311-0.556c-0.358-0.37-0.538-0.815-0.538-1.338
			V40.11c0-0.525,0.182-0.973,0.544-1.341S113.906,38.217,114.413,38.217z M115.049,40.085c0-0.189-0.065-0.35-0.194-0.482
			c-0.131-0.133-0.288-0.199-0.473-0.199c-0.186,0-0.345,0.066-0.477,0.199c-0.133,0.133-0.198,0.293-0.198,0.482v4.33
			c0,0.189,0.065,0.351,0.198,0.483c0.132,0.132,0.291,0.198,0.477,0.198c0.185,0,0.342-0.066,0.473-0.198
			c0.129-0.133,0.194-0.294,0.194-0.483V40.085z"/>
	</g>
	<g enable-background="new    ">
		<path fill="#F1F2F2" d="M120.872,31.093c0-1.946,0.525-3.433,1.577-4.46c0.908-0.908,2.102-1.362,3.58-1.362
			c1.358,0,2.517,0.508,3.475,1.525c0.959,1.017,1.438,2.203,1.438,3.559c0,1.399-0.312,2.75-0.936,4.051
			c-0.34,0.722-1.135,1.962-2.383,3.723c-0.34,0.481-0.844,1.229-1.512,2.247l-0.558,0.836c-0.362,0.547-0.636,0.979-0.821,1.295
			c-0.088,0.162-0.132,0.261-0.132,0.295h6.095v3.034h-9.873v-2.843c0-0.065,0.227-0.443,0.678-1.134
			c0.209-0.315,0.445-0.665,0.709-1.048l0.809-1.162c0.472-0.645,1.212-1.678,2.221-3.098c0.953-1.334,1.666-2.541,2.138-3.623
			c0.384-0.885,0.575-1.711,0.575-2.476c0-0.622-0.175-1.153-0.525-1.59c-0.383-0.459-0.876-0.688-1.479-0.688
			c-0.865,0-1.479,0.498-1.84,1.492c-0.12,0.328-0.18,0.721-0.18,1.181v0.787h-3.056V31.093z"/>
	</g>
	<g enable-background="new    ">
		<path fill="#F1F2F2" d="M143.331,41.162c0,1.366-0.481,2.525-1.445,3.477s-2.119,1.426-3.466,1.426
			c-1.369,0-2.533-0.479-3.491-1.435s-1.437-2.112-1.437-3.468V29.945c0-1.367,0.48-2.529,1.445-3.485
			c0.963-0.957,2.124-1.435,3.482-1.435c1.369,0,2.529,0.481,3.482,1.444c0.953,0.961,1.429,2.121,1.429,3.477V41.162z
			 M140.111,29.879c0-0.492-0.176-0.912-0.525-1.263c-0.351-0.35-0.771-0.524-1.266-0.524c-0.492,0-0.911,0.175-1.256,0.524
			c-0.346,0.351-0.518,0.771-0.518,1.263v11.233c0,0.492,0.172,0.913,0.518,1.263c0.345,0.35,0.764,0.525,1.256,0.525
			c0.494,0,0.915-0.176,1.266-0.525c0.35-0.35,0.525-0.771,0.525-1.263V29.879z"/>
	</g>
	<g enable-background="new    ">
		<path fill="#F1F2F2" d="M148.482,45.852V30.027h-2.645v-2.166c0.744-0.087,1.453-0.368,2.127-0.844s1.158-1.053,1.453-1.73h2.168
			v20.564H148.482z"/>
	</g>
	<g enable-background="new    ">
		<path fill="#F1F2F2" d="M160.451,30.387v-0.508c0-0.502-0.135-0.926-0.402-1.271c-0.27-0.345-0.649-0.517-1.143-0.517
			c-0.492,0-0.873,0.172-1.141,0.517c-0.27,0.345-0.403,0.769-0.403,1.271v4.1c0.712-0.634,1.495-0.951,2.349-0.951
			c1.369,0,2.393,0.477,3.072,1.428c0.603,0.83,0.904,1.983,0.904,3.459v3.526h-0.018c-0.065,1.312-0.539,2.411-1.42,3.296
			c-0.883,0.886-1.963,1.328-3.244,1.328c-1.369,0-2.498-0.486-3.385-1.459c-0.865-0.94-1.297-2.088-1.297-3.443V29.945
			c0-1.006,0.243-1.914,0.73-2.723c0.486-0.809,1.18-1.411,2.078-1.804c0.568-0.262,1.193-0.394,1.873-0.394
			c1.357,0,2.485,0.492,3.383,1.476c0.865,0.94,1.299,2.089,1.299,3.444v0.441H160.451z M157.362,41.112
			c0,0.503,0.127,0.919,0.38,1.246c0.275,0.36,0.66,0.542,1.156,0.542s0.881-0.182,1.156-0.542c0.264-0.327,0.396-0.743,0.396-1.246
			v-3.805c0-0.591-0.221-1.082-0.661-1.476c-0.209-0.186-0.501-0.279-0.875-0.279c-0.54,0-0.946,0.213-1.222,0.641
			c-0.221,0.35-0.331,0.737-0.331,1.164V41.112z"/>
	</g>
</g>
</svg>
