<?xml version="1.0" encoding="utf-8"?>
<!-- Generator: Adobe Illustrator 16.0.0, SVG Export Plug-In . SVG Version: 6.00 Build 0)  -->
<!DOCTYPE svg PUBLIC "-//W3C//DTD SVG 1.1//EN" "http://www.w3.org/Graphics/SVG/1.1/DTD/svg11.dtd">
<svg version="1.1" id="Layer_1" xmlns="http://www.w3.org/2000/svg" xmlns:xlink="http://www.w3.org/1999/xlink" x="0px" y="0px"
	 width="239.753px" height="50.66px" viewBox="0 0 239.753 50.66" enable-background="new 0 0 239.753 50.66" xml:space="preserve">
<g id="Logo_1_">
	<g id="Logo">
		<path fill="#FFFFFF" d="M24.638,40.529l0.231-0.016c0.004,0,0.008-0.002,0.011-0.002l0.271-0.021
			c2.122-0.154,3.701-0.781,4.738-1.885c1.035-1.102,1.48-2.656,1.335-4.664l-1.297-17.845c-0.142-1.971-0.808-3.441-1.995-4.421
			c-1.188-0.978-2.841-1.39-4.964-1.235l-3.691,0.268l2.039,28.08l-8.832,0.598L9.995,5.11L4.754,8.175l5.61,37.72l2.529,1.502
			l0.172-0.014l-0.438-6.041L24.638,40.529z"/>
		<path fill="#FFFFFF" d="M52.255,11.103c0.332-0.109,0.792-0.186,1.384-0.229c0.703-0.053,1.378,0.006,2.026,0.172
			c0.584,0.15,1.107,0.392,1.578,0.715L56.787,5.49l-4.627,5.49L52.255,11.103z"/>
		<path fill="#FFFFFF" d="M58.182,24.71c-0.173,0.197-0.362,0.388-0.568,0.562c-1.468,1.239-3.465,1.952-5.996,2.134
			c-1.604,0.117-2.947,0.021-4.03-0.285c-1.083-0.305-1.962-0.75-2.643-1.329c-0.678-0.582-1.172-1.264-1.483-2.041
			c-0.312-0.781-0.498-1.596-0.56-2.446c-0.037-0.532-0.02-1.067,0.054-1.608c0.072-0.539,0.192-1.061,0.353-1.563l4.769-0.347
			c-0.092,0.306-0.155,0.695-0.191,1.168c-0.036,0.474-0.033,0.986,0.006,1.539c0.029,0.404,0.106,0.799,0.234,1.187
			c0.128,0.388,0.328,0.72,0.604,1c0.274,0.278,0.637,0.498,1.087,0.657c0.449,0.16,0.999,0.216,1.645,0.171
			c0.984-0.072,1.736-0.335,2.255-0.789c0.518-0.454,0.743-1.161,0.674-2.117l-0.372-5.104c-0.051-0.701-0.357-1.221-0.918-1.555
			c-0.562-0.332-1.166-0.476-1.812-0.429c-0.958,0.069-1.875,0.308-2.75,0.711l-1.764,0.804l-0.204-2.808l5.274-6.801L42.9,6.069
			l-0.233-3.217L27.599,3.891c0.435,0.058,0.86,0.126,1.275,0.209c1.944,0.392,3.631,1.065,5.059,2.025
			c1.427,0.96,2.573,2.233,3.443,3.823c0.865,1.586,1.381,3.493,1.543,5.719l1.255,17.296c0.164,2.264-0.067,4.24-0.696,5.938
			s-1.58,3.121-2.854,4.279c-1.274,1.156-2.845,2.066-4.712,2.732c-0.058,0.021-0.118,0.039-0.177,0.061l27.843-2.098L58.182,24.71z
			"/>
	</g>
	<g enable-background="new    ">
		<path fill="#FFFFFF" d="M68.566,19.718l-0.625,4.207h-2.68l2.901-18.301h3.541l2.86,18.301h-2.707l-0.602-4.207H68.566z
			 M69.918,9.815l-0.953,7.215h1.907L69.918,9.815z"/>
	</g>
	<g enable-background="new    ">
		<path fill="#FFFFFF" d="M80.773,5.624c1.435,0,2.488,0.423,3.16,1.271c0.59,0.74,0.885,1.772,0.885,3.096v2.658
			c0,1.295-0.458,2.391-1.375,3.287l1.906,7.989h-2.784l-1.561-6.894c-0.073,0-0.149,0-0.231,0h-1.484v6.894h-2.574V5.624H80.773z
			 M82.312,10.034c0-1.061-0.49-1.592-1.471-1.592h-1.553v5.857h1.553c0.408,0,0.756-0.156,1.042-0.468
			c0.286-0.312,0.429-0.686,0.429-1.125V10.034z"/>
	</g>
	<g enable-background="new    ">
		<path fill="#FFFFFF" d="M89.455,8.399h-2.738V5.624h8.035v2.775h-2.724v15.526h-2.573V8.399z"/>
		<path fill="#FFFFFF" d="M101.861,13.949h3.432v2.044h-3.432v3.681h-1.906v-3.681h-3.433v-2.044h3.433v-3.681h1.906V13.949z"/>
	</g>
	<g enable-background="new    ">
		<path fill="#FFFFFF" d="M116.923,19.543c0,1.208-0.396,2.24-1.187,3.097c-0.788,0.857-1.741,1.285-2.858,1.285h-4.045V5.609h4.045
			c1.125,0,2.082,0.428,2.867,1.285c0.784,0.857,1.178,1.884,1.178,3.082V19.543z M111.408,21.193h1.553
			c0.408,0,0.754-0.158,1.035-0.475s0.422-0.688,0.422-1.117V10.02c0-0.438-0.143-0.813-0.43-1.125
			c-0.285-0.312-0.628-0.467-1.027-0.467h-1.553V21.193z"/>
	</g>
	<g enable-background="new    ">
		<path fill="#FFFFFF" d="M119.171,23.924V5.609h7.326v2.775h-4.752v4.995h3.473v2.775h-3.473v4.995h4.752v2.775H119.171z"/>
	</g>
	<g enable-background="new    ">
		<path fill="#FFFFFF" d="M136.781,19.367c0.018,1.276-0.291,2.366-0.926,3.272c-0.418,0.613-1.008,1.047-1.771,1.3
			c-0.408,0.136-0.885,0.205-1.43,0.205c-1.008,0-1.843-0.268-2.506-0.804c-0.554-0.438-0.992-1.034-1.314-1.789
			c-0.321-0.754-0.51-1.619-0.564-2.592l2.451-0.19c0.109,1.067,0.373,1.84,0.791,2.319c0.309,0.362,0.662,0.534,1.062,0.514
			c0.562-0.02,1.012-0.317,1.348-0.892c0.173-0.282,0.259-0.687,0.259-1.213c0-0.76-0.322-1.516-0.968-2.266
			c-0.508-0.517-1.271-1.291-2.287-2.324c-0.854-0.887-1.456-1.681-1.811-2.383c-0.383-0.789-0.572-1.647-0.572-2.573
			c0-1.667,0.521-2.929,1.565-3.786c0.646-0.517,1.442-0.775,2.397-0.775c0.916,0,1.701,0.219,2.354,0.657
			c0.509,0.341,0.919,0.818,1.231,1.431c0.312,0.614,0.503,1.32,0.564,2.118l-2.465,0.482c-0.072-0.75-0.271-1.334-0.6-1.753
			c-0.235-0.302-0.576-0.453-1.021-0.453c-0.472,0-0.831,0.224-1.075,0.672c-0.199,0.36-0.301,0.809-0.301,1.344
			c0,0.837,0.336,1.689,1.008,2.556c0.256,0.331,0.637,0.721,1.146,1.168c0.601,0.536,0.993,0.911,1.187,1.125
			c0.635,0.682,1.125,1.354,1.471,2.016c0.162,0.312,0.295,0.599,0.395,0.862C136.645,18.267,136.772,18.852,136.781,19.367z"/>
	</g>
	<g enable-background="new    ">
		<path fill="#FFFFFF" d="M141.488,23.924h-2.574v-18.3h2.574V23.924z"/>
	</g>
	<g enable-background="new    ">
		<path fill="#FFFFFF" d="M147.843,24.158c-1.135,0-2.1-0.429-2.895-1.286c-0.795-0.856-1.191-1.884-1.191-3.082V9.8
			c0-1.217,0.4-2.252,1.199-3.104s1.76-1.278,2.887-1.278c1.135,0,2.098,0.429,2.887,1.285c0.79,0.857,1.186,1.889,1.186,3.097
			v2.088h-2.67V9.742c0-0.438-0.145-0.813-0.436-1.125s-0.641-0.468-1.049-0.468s-0.756,0.156-1.041,0.468
			c-0.287,0.312-0.43,0.687-0.43,1.125v10.02c0,0.438,0.143,0.811,0.43,1.117c0.285,0.307,0.633,0.46,1.041,0.46
			s0.758-0.153,1.049-0.458s0.436-0.677,0.436-1.114v-3.598h-1.43v-2.775h4.1v6.397c0,1.217-0.399,2.249-1.199,3.096
			C149.917,23.734,148.96,24.158,147.843,24.158z"/>
	</g>
	<g enable-background="new    ">
		<path fill="#FFFFFF" d="M157.035,5.609l3.416,12.309V5.609h2.573v18.315h-2.765l-3.541-11.729v11.729h-2.573V5.609H157.035z"/>
	</g>
	<g enable-background="new    ">
		<path fill="#FFFFFF" d="M67.501,37.148c-0.516,0-0.954-0.186-1.314-0.553c-0.361-0.369-0.541-0.814-0.541-1.336v-4.316
			c0-0.525,0.181-0.973,0.544-1.342c0.363-0.367,0.8-0.553,1.311-0.553c0.515,0,0.952,0.186,1.311,0.557
			c0.358,0.369,0.538,0.816,0.538,1.338v0.902h-1.211v-0.928c0-0.189-0.066-0.354-0.198-0.486c-0.132-0.135-0.291-0.201-0.476-0.201
			c-0.186,0-0.343,0.066-0.473,0.201c-0.13,0.135-0.195,0.297-0.195,0.486v4.328c0,0.189,0.065,0.352,0.195,0.482
			c0.13,0.133,0.288,0.199,0.473,0.199s0.344-0.066,0.476-0.199c0.132-0.133,0.198-0.293,0.198-0.482v-1.09h1.211v1.104
			c0,0.525-0.181,0.973-0.544,1.338C68.443,36.965,68.008,37.148,67.501,37.148z"/>
	</g>
	<g enable-background="new    ">
		<path fill="#FFFFFF" d="M72.786,29.037c0.515,0,0.953,0.186,1.314,0.555c0.36,0.371,0.541,0.816,0.541,1.34v4.316
			c0,0.525-0.181,0.973-0.544,1.342c-0.363,0.367-0.8,0.553-1.311,0.553c-0.515,0-0.952-0.186-1.311-0.557
			c-0.359-0.369-0.538-0.816-0.538-1.338v-4.316c0-0.527,0.181-0.975,0.544-1.342C71.844,29.221,72.279,29.037,72.786,29.037z
			 M73.422,30.904c0-0.188-0.065-0.35-0.195-0.482c-0.13-0.131-0.288-0.197-0.473-0.197c-0.186,0-0.344,0.066-0.476,0.197
			c-0.132,0.133-0.198,0.295-0.198,0.482v4.33c0,0.189,0.066,0.352,0.198,0.484c0.132,0.131,0.291,0.197,0.476,0.197
			s0.343-0.066,0.473-0.197c0.13-0.133,0.195-0.295,0.195-0.484V30.904z"/>
	</g>
	<g enable-background="new    ">
		<path fill="#FFFFFF" d="M77.627,29.133l1.55,5.318v-5.318h1.169v7.914h-1.255l-1.607-5.068v5.068h-1.168v-7.914H77.627z"/>
	</g>
	<g enable-background="new    ">
		<path fill="#FFFFFF" d="M83.207,37.047h-1.168v-7.914h3.328v1.199h-2.159v2.158h1.577v1.199h-1.577L83.207,37.047L83.207,37.047z"
			/>
		<path fill="#FFFFFF" d="M86.167,37.047v-7.914h3.326v1.199h-2.158v2.158h1.578v1.199h-1.578v2.158h2.158v1.199H86.167
			L86.167,37.047z"/>
	</g>
	<g enable-background="new    ">
		<path fill="#FFFFFF" d="M93.427,29.139c0.652,0,1.13,0.182,1.436,0.549c0.268,0.318,0.401,0.766,0.401,1.338v1.148
			c0,0.561-0.208,1.033-0.624,1.42l0.865,3.453h-1.264l-0.709-2.98c-0.033,0-0.068,0-0.105,0h-0.674v2.98h-1.168v-7.908H93.427z
			 M94.126,31.045c0-0.459-0.224-0.688-0.668-0.688h-0.705v2.529h0.705c0.186,0,0.344-0.066,0.473-0.201
			c0.131-0.135,0.195-0.297,0.195-0.486V31.045z"/>
	</g>
	<g enable-background="new    ">
		<path fill="#FFFFFF" d="M97.153,37.047v-7.914h3.326v1.199h-2.157v2.158h1.576v1.199h-1.576v2.158h2.157v1.199H97.153
			L97.153,37.047z"/>
	</g>
	<g enable-background="new    ">
		<path fill="#FFFFFF" d="M103.24,29.133l1.551,5.318v-5.318h1.168v7.914h-1.256l-1.606-5.068v5.068h-1.168v-7.914H103.24z"/>
	</g>
	<g enable-background="new    ">
		<path fill="#FFFFFF" d="M109.488,37.148c-0.516,0-0.953-0.186-1.312-0.553c-0.36-0.369-0.541-0.814-0.541-1.336v-4.316
			c0-0.525,0.181-0.973,0.544-1.342c0.362-0.367,0.8-0.553,1.311-0.553c0.517,0,0.952,0.186,1.312,0.557
			c0.359,0.369,0.537,0.816,0.537,1.338v0.902h-1.211v-0.928c0-0.189-0.065-0.354-0.197-0.486c-0.133-0.135-0.291-0.201-0.477-0.201
			c-0.187,0-0.344,0.066-0.474,0.201s-0.194,0.297-0.194,0.486v4.328c0,0.189,0.064,0.352,0.194,0.482
			c0.13,0.133,0.287,0.199,0.474,0.199c0.186,0,0.344-0.066,0.477-0.199c0.132-0.133,0.197-0.293,0.197-0.482v-1.09h1.211v1.104
			c0,0.525-0.18,0.973-0.543,1.338C110.431,36.965,109.996,37.148,109.488,37.148z"/>
	</g>
	<g enable-background="new    ">
		<path fill="#FFFFFF" d="M112.942,37.047v-7.914h3.326v1.199h-2.157v2.158h1.576v1.199h-1.576v2.158h2.157v1.199H112.942
			L112.942,37.047z"/>
	</g>
	<g enable-background="new    ">
		<path fill="#FFFFFF" d="M78.647,45.895l-0.284,1.818h-1.217l1.317-7.908h1.607l1.298,7.908h-1.229l-0.273-1.818H78.647z
			 M79.261,41.615l-0.433,3.119h0.866L79.261,41.615z"/>
	</g>
	<g enable-background="new    ">
		<path fill="#FFFFFF" d="M84.312,39.799l1.551,5.318v-5.318h1.168v7.914h-1.255l-1.607-5.068v5.068H83v-7.914H84.312z"/>
	</g>
	<g enable-background="new    ">
		<path fill="#FFFFFF" d="M92.394,45.818c0,0.523-0.18,0.969-0.537,1.338c-0.359,0.371-0.791,0.557-1.299,0.557h-1.836v-7.914h1.836
			c0.512,0,0.945,0.186,1.302,0.555c0.356,0.371,0.534,0.814,0.534,1.332V45.818L92.394,45.818z M89.89,46.533h0.705
			c0.186,0,0.342-0.068,0.471-0.205c0.127-0.137,0.191-0.299,0.191-0.482v-4.143c0-0.188-0.065-0.352-0.195-0.484
			c-0.129-0.135-0.285-0.201-0.467-0.201H89.89V46.533z"/>
	</g>
	<g enable-background="new    ">
		<path fill="#FFFFFF" d="M105.822,47.713h-1.255l-0.897-2.52l-0.901,2.52h-1.255l1.521-3.977l-1.521-3.932h1.292l0.864,2.441
			l0.859-2.441h1.293l-1.521,3.932L105.822,47.713z"/>
	</g>
	<g enable-background="new    ">
		<path fill="#FFFFFF" d="M96.763,47.713v-7.914h3.326v1.197h-2.158v2.16h1.576v1.199h-1.576v2.158h2.158v1.199H96.763
			L96.763,47.713z"/>
	</g>
	<g enable-background="new    ">
		<path fill="#FFFFFF" d="M109.289,39.805c0.568,0,1.021,0.182,1.359,0.549c0.312,0.35,0.471,0.795,0.471,1.338v1.148
			c0,0.521-0.179,0.969-0.535,1.338c-0.355,0.371-0.787,0.557-1.295,0.557h-0.674v2.979h-1.169v-7.908H109.289L109.289,39.805z
			 M109.987,41.711c0-0.207-0.062-0.373-0.183-0.498c-0.121-0.127-0.283-0.189-0.484-0.189h-0.705v2.531h0.705
			c0.186,0,0.342-0.068,0.473-0.203c0.129-0.135,0.194-0.297,0.194-0.486V41.711z"/>
	</g>
	<g enable-background="new    ">
		<path fill="#FFFFFF" d="M114.414,39.703c0.515,0,0.953,0.186,1.312,0.557c0.361,0.369,0.541,0.814,0.541,1.338v4.316
			c0,0.525-0.182,0.975-0.544,1.342c-0.362,0.369-0.8,0.553-1.312,0.553c-0.515,0-0.951-0.186-1.311-0.557
			c-0.357-0.369-0.538-0.814-0.538-1.338v-4.318c0-0.525,0.183-0.973,0.544-1.34C113.469,39.887,113.906,39.703,114.414,39.703z
			 M115.048,41.57c0-0.188-0.064-0.35-0.193-0.48c-0.131-0.133-0.288-0.199-0.473-0.199c-0.187,0-0.346,0.066-0.478,0.199
			c-0.133,0.133-0.198,0.293-0.198,0.48v4.33c0,0.189,0.065,0.352,0.198,0.484c0.132,0.131,0.291,0.197,0.478,0.197
			c0.185,0,0.342-0.066,0.473-0.197c0.129-0.133,0.193-0.295,0.193-0.484V41.57z"/>
	</g>
	<g enable-background="new    ">
		<path fill="#FFFFFF" d="M120.873,32.578c0-1.945,0.524-3.432,1.576-4.459c0.908-0.908,2.102-1.362,3.58-1.362
			c1.358,0,2.518,0.508,3.475,1.524c0.959,1.018,1.438,2.203,1.438,3.561c0,1.398-0.312,2.75-0.937,4.051
			c-0.34,0.721-1.135,1.961-2.383,3.723c-0.34,0.48-0.844,1.229-1.512,2.246l-0.558,0.836c-0.362,0.547-0.636,0.98-0.821,1.295
			c-0.088,0.162-0.132,0.262-0.132,0.295h6.095v3.035h-9.873v-2.844c0-0.064,0.227-0.443,0.678-1.133
			c0.209-0.316,0.445-0.666,0.709-1.049l0.81-1.162c0.472-0.645,1.212-1.678,2.222-3.098c0.952-1.334,1.665-2.541,2.137-3.623
			c0.385-0.885,0.576-1.711,0.576-2.477c0-0.621-0.176-1.152-0.525-1.59c-0.383-0.459-0.877-0.688-1.479-0.688
			c-0.865,0-1.479,0.498-1.841,1.492c-0.12,0.328-0.18,0.721-0.18,1.182v0.785h-3.056V32.578z"/>
	</g>
	<g enable-background="new    ">
		<path fill="#FFFFFF" d="M143.332,42.648c0,1.365-0.481,2.525-1.445,3.477c-0.965,0.951-2.119,1.426-3.467,1.426
			c-1.369,0-2.532-0.479-3.49-1.436c-0.958-0.955-1.438-2.111-1.438-3.467V31.432c0-1.367,0.48-2.529,1.445-3.486
			c0.963-0.957,2.124-1.435,3.482-1.435c1.369,0,2.529,0.481,3.481,1.444c0.953,0.961,1.429,2.121,1.429,3.477v11.217H143.332z
			 M140.111,31.365c0-0.492-0.176-0.912-0.525-1.264c-0.351-0.35-0.771-0.523-1.266-0.523c-0.492,0-0.91,0.176-1.256,0.523
			c-0.346,0.352-0.518,0.771-0.518,1.264v11.232c0,0.492,0.172,0.914,0.518,1.264s0.764,0.525,1.256,0.525
			c0.494,0,0.915-0.176,1.266-0.525s0.525-0.771,0.525-1.264V31.365z"/>
	</g>
	<g enable-background="new    ">
		<path fill="#FFFFFF" d="M148.482,47.338V31.514h-2.645v-2.166c0.744-0.088,1.453-0.369,2.127-0.844
			c0.674-0.477,1.158-1.055,1.453-1.73h2.168v20.564H148.482L148.482,47.338z"/>
	</g>
	<g enable-background="new    ">
		<path fill="#FFFFFF" d="M160.451,31.873v-0.508c0-0.502-0.135-0.926-0.402-1.271c-0.27-0.344-0.648-0.518-1.143-0.518
			c-0.492,0-0.873,0.174-1.141,0.518c-0.27,0.346-0.403,0.77-0.403,1.271v4.1c0.712-0.633,1.495-0.951,2.349-0.951
			c1.369,0,2.394,0.477,3.072,1.428c0.604,0.83,0.904,1.984,0.904,3.459v3.527h-0.018c-0.065,1.311-0.539,2.41-1.42,3.295
			c-0.883,0.887-1.963,1.328-3.244,1.328c-1.369,0-2.498-0.486-3.385-1.459c-0.865-0.939-1.297-2.088-1.297-3.443V31.432
			c0-1.006,0.242-1.914,0.729-2.723c0.485-0.811,1.18-1.412,2.077-1.805c0.568-0.262,1.193-0.395,1.873-0.395
			c1.357,0,2.486,0.492,3.384,1.477c0.864,0.939,1.299,2.088,1.299,3.443v0.441h-3.235V31.873z M157.362,42.598
			c0,0.504,0.127,0.92,0.38,1.246c0.275,0.359,0.66,0.543,1.156,0.543s0.881-0.184,1.156-0.543c0.264-0.326,0.396-0.742,0.396-1.246
			v-3.805c0-0.592-0.222-1.082-0.662-1.477c-0.209-0.186-0.5-0.279-0.875-0.279c-0.539,0-0.945,0.215-1.222,0.643
			c-0.221,0.35-0.331,0.736-0.331,1.164L157.362,42.598L157.362,42.598z"/>
	</g>
</g>
<g>
	<path fill-rule="evenodd" clip-rule="evenodd" fill="#FFFFFF" d="M207.266,29.19c-0.155,0.196-0.273,0.424-0.357,0.66
		c-0.087,0.072-0.132,0.166-0.154,0.274c-0.01,0.026-0.022,0.059-0.032,0.09c-0.084,0.061-0.127,0.146-0.133,0.254l0.009-0.011
		c-0.021,0.041-0.041,0.082-0.062,0.122c-0.062,0.063-0.125,0.12-0.188,0.177c-4.965-0.002-9.93-0.005-14.895-0.007
		c-0.02-0.031-0.041-0.057-0.062-0.088c0.009-0.15,0.026-0.306,0.026-0.461c0.001-8.975,0-17.951,0-26.929
		c0-0.122-0.003-0.246,0.002-0.369c0.016-0.301,0.161-0.18,0.295-0.088c0.041,0.08,0.1,0.094,0.172,0.047l0.014-0.002
		c-0.03-0.008-0.059-0.018-0.085-0.026c-0.14,0.155,0.013,0.241,0.086,0.345c0.748,1.418,1.495,2.834,2.244,4.252
		c0.147,0.354,0.314,0.698,0.538,1.013c0.064,0.126,0.129,0.251,0.193,0.374c0.155,0.355,0.312,0.709,0.546,1.022
		c0.021,0.036,0.043,0.069,0.064,0.105c0.173,0.456,0.404,0.882,0.673,1.289c0.012,0.029,0.022,0.062,0.035,0.091
		c-0.016,0.055,0.013,0.078,0.06,0.088l0.001,0.001c0.533,1.12,1.11,2.22,1.738,3.289c0.2,0.384,0.398,0.769,0.598,1.153
		c0.332,0.641,0.654,1.284,0.994,1.918c0.833,1.557,1.606,3.143,2.498,4.668v-0.006c0.1,0.311,0.256,0.592,0.451,0.85h-0.004
		c0.114,0.326,0.273,0.63,0.48,0.91v-0.002c0.027,0.423,0.369,0.678,0.539,1.021c0.014,0.03,0.023,0.061,0.037,0.085
		c0.218,0.471,0.428,0.945,0.733,1.368l0.021,0.021c0.109,0.371,0.308,0.703,0.521,1.027v-0.006c0.421,0.829,0.84,1.652,1.26,2.476
		c0.033-0.01,0.068-0.022,0.104-0.036c0-0.12,0-0.234,0-0.355c0-8.887,0.001-17.77-0.007-26.654
		c-0.001-0.33,0.027-0.498,0.434-0.497c4.259,0.017,8.516,0.01,12.771,0.013c1.374,0.001,2.745-0.014,4.108,0.217
		c1.27,0.213,2.465,0.654,3.646,1.137c1.51,0.774,2.849,1.773,4.035,2.976c0.476,0.585,0.951,1.173,1.425,1.758
		c0.968,1.534,1.743,3.157,2.086,4.948c0.999,5.238-0.526,9.676-4.368,13.319c-1.429,1.36-3.172,2.23-5.029,2.868
		c-1.342,0.463-2.732,0.689-4.157,0.698c-0.009-0.184-0.017-0.367-0.017-0.556c0-8.848,0-17.701-0.004-26.552
		c0-0.151,0.074-0.33-0.105-0.489c-0.251,0.309-0.296,0.686-0.461,1.004h0.003c-0.48,0.779-0.9,1.592-1.283,2.424l0.002-0.002
		c-0.419,0.654-0.756,1.35-1.096,2.045c-1.302,2.467-2.602,4.934-3.9,7.4c-0.188,0.215-0.297,0.471-0.385,0.734l0.004-0.002
		c-0.715,1.203-1.348,2.449-1.975,3.699c-0.018,0.037-0.033,0.074-0.051,0.108c-0.5,0.954-1.119,1.844-1.498,2.858h0.002
		c-0.586,0.959-1.094,1.958-1.574,2.974c-0.127,0.132-0.23,0.271-0.17,0.472c-0.063,0.041-0.152,0.063-0.184,0.125
		C208.072,27.606,207.671,28.396,207.266,29.19z"/>
	<path fill-rule="evenodd" clip-rule="evenodd" fill="#FFFFFF" d="M191.91,35.586c0.001-0.086,0.003-0.171,0.004-0.257
		c0.105-0.294,0.06-0.6,0.066-0.899c0.02-0.739,0.015-0.739-0.721-0.795l0,0c-0.008-0.06-0.016-0.126-0.022-0.186l0.012-0.016
		c0.26,0.004,0.53,0.051,0.778,0c0.704-0.146,1.16,0.086,1.345,0.795c0.251,0.855,0.61,1.666,1.022,2.453
		c0.076,0.152,0.131,0.244,0.288,0.104c0.394-0.706,0.633-1.474,0.907-2.222c0.07-0.181,0.14-0.366,0.209-0.547
		c0.187-0.226,0.15-0.653,0.63-0.612c0.428,0.037,0.862,0.005,1.294,0.004c0.132,0.069,0.049,0.139,0.006,0.213
		c-0.775,0.07-0.775,0.07-0.652,0.688c0.006,0.177,0.01,0.354,0.014,0.53c0.004,0.248,0.011,0.496,0.016,0.744
		c0.002,0.151,0.005,0.308,0.008,0.458c0.016,0.584,0.055,1.163,0.039,1.746c-0.014,0.487,0.042,0.884,0.648,0.913
		c0.011,0,0.017,0.051,0.037,0.127c-0.494,0.139-1.004-0.07-1.488,0.059c-0.184-0.003-0.365-0.006-0.548-0.006
		c-0.152,0-0.317,0.027-0.351-0.188c0.75-0.187,0.75-0.187,0.737-0.98c-0.009-0.614-0.019-1.235-0.022-1.85
		c-0.004-0.493-0.001-0.989-0.001-1.481c-0.13,0.042-0.159,0.09-0.18,0.141c-0.521,1.308-1.042,2.62-1.56,3.928
		c-0.043,0.113-0.039,0.27-0.201,0.271c-0.158,0.001-0.182-0.154-0.227-0.26c-0.244-0.583-0.48-1.169-0.721-1.748
		c-0.305-0.731-0.611-1.463-0.916-2.194c-0.195,1.21-0.236,2.404-0.169,3.6c0.013,0.195,0.034,0.406,0.28,0.481
		c0.109,0.033,0.28,0.042,0.213,0.216c-0.053,0.135-0.2,0.105-0.326,0.079c-0.398-0.099-0.795-0.029-1.193,0.011
		c-0.185-0.137-0.199-0.258,0.039-0.342c0.14-0.047,0.281-0.081,0.424-0.122c0.166-0.061,0.15-0.225,0.157-0.347
		c0.044-0.65,0.07-1.303,0.103-1.955c0.002-0.097,0.006-0.188,0.009-0.279C191.902,35.769,191.906,35.678,191.91,35.586z"/>
	<path fill-rule="evenodd" clip-rule="evenodd" fill="#FFFFFF" d="M216.173,34.084c-0.11-0.463-0.607,0.043-0.803-0.392
		c1.55-0.346,3.055-0.533,4.547,0.15c0.17,0.137,0.34,0.279,0.511,0.417c0.191,0.076,0.253,0.256,0.345,0.407
		c0.365,0.598,0.474,1.247,0.415,1.934c-0.007,0.062-0.015,0.119-0.026,0.176c-0.099,0.172-0.171,0.358-0.194,0.553l0.002-0.003
		c-0.089,0.039-0.109,0.12-0.119,0.204c-0.609,1.015-1.585,1.321-2.681,1.352c-0.768,0.026-1.537,0.007-2.307,0
		c-0.131-0.001-0.33,0.059-0.357-0.106c-0.031-0.2,0.178-0.158,0.303-0.179c0.262-0.048,0.428-0.17,0.373-0.468
		c0.117-0.937,0.038-1.876,0.044-2.814C216.231,34.907,216.306,34.487,216.173,34.084z M217.179,36.065c0,0.536-0.001,1.078,0,1.614
		c0.002,0.837,0.352,1.111,1.166,0.931c1.201-0.268,1.942-1.419,1.795-2.785c-0.141-1.295-1.135-2.201-2.374-2.192
		c-0.407,0.003-0.596,0.174-0.588,0.585C217.187,34.831,217.18,35.445,217.179,36.065z"/>
	<path fill-rule="evenodd" clip-rule="evenodd" fill="#FFFFFF" d="M218.218,44.632c-0.426-0.23-0.551-0.625-0.527-1.068
		c0.025-0.477,0.218-0.869,0.703-1.052c0.152-0.059,0.305-0.126,0.456-0.189c0.401-0.055,0.8-0.07,1.195,0.03l-0.001-0.002
		c0.014,0.053,0.042,0.083,0.102,0.069c0.392,0.145,0.785,0.263,1.21,0.174c0.119,0.009,0.215,0.043,0.192,0.189
		c-0.016,0.134-0.116,0.121-0.206,0.115c-0.332-0.028-0.331,0.128-0.252,0.393c0.154,0.537-0.021,0.821-0.425,1.188
		c-0.44,0.395-0.921,0.472-1.466,0.452c-0.208-0.005-0.458,0.052-0.433,0.355c0.02,0.283,0.263,0.204,0.432,0.217
		c0.519,0.031,1.044-0.055,1.561,0.084c0.368,0.099,0.721,0.23,0.832,0.633c0.113,0.389-0.032,0.727-0.304,1.016
		c-0.277,0.301-0.629,0.483-1.017,0.61c-0.744,0.246-1.488,0.194-2.236,0.032l-0.001,0.003c-0.783-0.576-0.765-1.037,0.075-1.508
		c0.269-0.151,0.346-0.247,0.049-0.463c-0.244-0.178-0.57-0.376-0.312-0.776l-0.002,0.002c0.142-0.043,0.301-0.056,0.422-0.134
		C218.458,44.874,218.497,44.721,218.218,44.632z M219.543,47.771c0.342-0.016,0.669-0.078,0.964-0.265
		c0.252-0.158,0.412-0.38,0.374-0.688c-0.042-0.337-0.312-0.448-0.594-0.482c-0.394-0.049-0.799-0.022-1.19-0.077
		c-0.363-0.052-0.605,0.065-0.729,0.393c-0.137,0.366-0.016,0.665,0.3,0.882C218.93,47.714,219.231,47.764,219.543,47.771z
		 M218.654,43.648c-0.011,0.182,0.018,0.42,0.145,0.643c0.324,0.572,0.846,0.6,1.228,0.065c0.248-0.348,0.293-1.309-0.167-1.707
		c-0.072-0.061-0.135-0.103-0.23-0.129C219.064,42.379,218.658,42.815,218.654,43.648z"/>
	<path fill-rule="evenodd" clip-rule="evenodd" fill="#FFFFFF" d="M203.336,46.397c-0.045,0.002-0.09,0.005-0.135,0.007
		c-0.062,0.005-0.123,0.009-0.185,0.012c-1.016-0.005-1.917-0.26-2.664-1.025c-1.31-1.348-0.739-3.298,0.621-4.081
		c1.127-0.648,2.316-0.629,3.523-0.262c0.06,0.308,0.12,0.614,0.178,0.921l-0.02,0.024l0.014,0.021
		c-0.277,0.133-0.363-0.111-0.455-0.262c-0.663-1.054-2.082-0.813-2.717-0.109c-0.87,0.961-0.949,2.612-0.147,3.663l0,0
		c0.017,0.098,0.072,0.168,0.167,0.203l0,0c0.279,0.561,0.805,0.626,1.342,0.635c0.486,0.012,0.901-0.146,1.105-0.639
		c0.031,0.005,0.055-0.008,0.072-0.028c0.2-0.113,0.241-0.34,0.37-0.505c0.048-0.06,0.099-0.125,0.184-0.104
		c0.099,0.021,0.079,0.11,0.087,0.185c0.081,0.688-0.115,0.989-0.775,1.183C203.716,46.292,203.526,46.345,203.336,46.397z"/>
	<path fill-rule="evenodd" clip-rule="evenodd" fill="#FFFFFF" d="M213.298,38.91c-0.125-0.005-0.25-0.011-0.375-0.017
		c-0.184-0.056-0.373-0.077-0.564-0.024c-0.088,0.005-0.178,0.011-0.27,0.02c-0.879-0.069-1.77,0.055-2.697-0.15
		c0.453-0.102,0.432-0.428,0.433-0.737c0.001-0.464-0.023-0.928,0.005-1.385c0.08-1.214-0.286-1.586-1.527-1.116l-0.02-0.023
		c0.002-0.203,0.16-0.271,0.3-0.361c0.617-0.394,1.229-0.389,1.843,0.005c0.068,0.124,0.137,0.247,0.207,0.367
		c0.109,0.89,0.043,1.784,0.045,2.675c0.001,0.462,0.316,0.562,0.604,0.564c0.186,0.001,0.483-0.03,0.636-0.258l0.007-0.007
		c0.027-0.055,0.08-0.104,0.08-0.154c0.01-0.723,0.012-1.446,0.01-2.164c0-0.186-0.066-0.331-0.273-0.373
		c-0.087-0.016-0.188-0.025-0.18-0.159c0.004-0.128,0.11-0.137,0.189-0.162c0.248-0.083,0.473-0.22,0.693-0.358
		c0.109-0.066,0.199-0.25,0.34-0.177c0.162,0.083,0.076,0.28,0.078,0.423c0.01,0.919,0.008,1.843,0.012,2.762
		c0,0.341,0.115,0.575,0.518,0.519c0.135,0.1,0.096,0.196-0.004,0.29C213.355,38.908,213.328,38.909,213.298,38.91z"/>
	<path fill-rule="evenodd" clip-rule="evenodd" fill="#FFFFFF" d="M204.777,38.901c-0.062,0.002-0.125,0.004-0.188,0.006
		c-0.091-0.007-0.181-0.014-0.271-0.025l-0.029-0.008c-0.096-0.219,0.072-0.227,0.207-0.25c0.275-0.038,0.395-0.184,0.391-0.466
		c-0.01-0.697-0.004-1.39-0.004-2.083c0-0.255-0.09-0.422-0.384-0.385c-0.062-0.048-0.14-0.145-0.063-0.179
		c0.453-0.198,0.767-0.628,1.259-0.756c0,0.221,0,0.441,0,0.748c0.14-0.122,0.196-0.167,0.249-0.215
		c0.739-0.669,1.416-0.643,2.101,0.078c0.071,0.071,0.148,0.099,0.239,0.109l0.02,0.023c-0.191,0.886-0.066,1.787-0.096,2.685
		c-0.01,0.254,0.099,0.403,0.357,0.438c0.153,0.025,0.342,0.041,0.174,0.277c-0.117,0.001-0.235,0.001-0.352,0.001
		c-0.238-0.087-0.486-0.05-0.73-0.062c-0.308-0.011-0.66,0.011-0.323-0.46c0.039-0.058,0.026-0.151,0.026-0.229
		c0.002-0.674,0.006-1.352-0.003-2.03c-0.003-0.228-0.04-0.462-0.267-0.596c-0.013-0.028-0.035-0.046-0.068-0.045
		c-0.658-0.357-1.272-0.037-1.293,0.691c-0.012,0.45-0.004,0.895,0.002,1.342c0.009,0.508-0.192,1.125,0.662,1.257
		C205.828,38.948,205.288,38.741,204.777,38.901z"/>
	<path fill-rule="evenodd" clip-rule="evenodd" fill="#FFFFFF" d="M200.604,37.898c0.022-0.02,0.028-0.043,0.017-0.069
		c0.319-0.512,0.8-0.823,1.35-1.016c0.484-0.167,0.795-0.4,0.665-0.967c-0.015-0.074,0.003-0.156-0.005-0.232
		c-0.025-0.229-0.045-0.478-0.319-0.557c-0.286-0.078-0.511,0.039-0.673,0.277c-0.086,0.125-0.152,0.263-0.217,0.4
		c-0.164,0.353-0.426,0.507-0.812,0.419c-0.021-0.039-0.041-0.078-0.062-0.116c0.018-0.025,0.017-0.054-0.003-0.082
		c0.01-0.024,0.02-0.055,0.029-0.085c0.135-0.188,0.268-0.379,0.399-0.569l0.003-0.003c0.537-0.384,1.136-0.524,1.788-0.461
		c0.521,0.056,0.709,0.25,0.714,0.771c0.005,0.771-0.004,1.541,0.004,2.312c0.001,0.143-0.055,0.335,0.11,0.42
		c0.181,0.092,0.36,0.038,0.494-0.125c0.046,0.017,0.091,0.039,0.136,0.056c-0.322,0.652-1.061,0.881-1.377,0.382
		c-0.273-0.432-0.457-0.335-0.71-0.037c-0.024-0.004-0.04,0.006-0.044,0.033c-0.409,0.21-0.82,0.399-1.287,0.164l0.003,0.002
		C200.597,38.537,200.589,38.222,200.604,37.898z M202.549,37.405c-0.048-0.106,0.116-0.347-0.095-0.432
		c-0.203-0.082-0.418,0.014-0.592,0.164c-0.033,0.025-0.066,0.06-0.102,0.088c-0.336,0.236-0.282,0.577-0.208,0.903
		c0.032,0.142,0.173,0.274,0.351,0.227c0.344-0.092,0.58-0.312,0.667-0.666C202.587,37.617,202.562,37.535,202.549,37.405z"/>
	<path fill-rule="evenodd" clip-rule="evenodd" fill="#FFFFFF" d="M222.915,38.818c-0.666,0.187-0.944,0.127-1.125-0.252
		c-0.214-0.44-0.057-0.942,0.433-1.279c0.265-0.18,0.555-0.33,0.849-0.468c0.683-0.307,0.79-0.491,0.661-1.219
		c-0.102-0.59-0.382-0.698-0.896-0.361c-0.191,0.155-0.257,0.382-0.311,0.611c-0.02,0.033-0.043,0.063-0.062,0.098
		c-0.032,0.033-0.064,0.066-0.098,0.095c-0.028,0.025-0.062,0.046-0.097,0.071c-0.101,0.004-0.201,0.025-0.273,0.098
		c-0.058,0.002-0.11,0.003-0.163,0.005c-0.2-0.155-0.13-0.327-0.04-0.519c0.117-0.235,0.353-0.357,0.503-0.564l-0.001,0.001
		c0.493-0.232,1.009-0.356,1.562-0.301c0.553,0.062,0.726,0.243,0.728,0.801c0.003,0.771,0.001,1.54,0.002,2.311
		c0,0.153,0.002,0.327,0.165,0.402c0.171,0.079,0.331,0.021,0.438-0.143c0.023,0.017,0.04,0.015,0.055-0.011
		c0.087,0.062,0.072,0.154,0.077,0.239l-0.006,0.012c-0.335,0.299-0.679,0.574-1.172,0.432c-0.125-0.141-0.251-0.283-0.376-0.429
		c-0.204-0.278-0.27,0.011-0.389,0.089c-0.057,0.038-0.116,0.076-0.172,0.114C223.088,38.676,222.993,38.729,222.915,38.818z
		 M223.378,36.964l0.003-0.002c-0.156,0.01-0.274,0.082-0.38,0.19c-0.034,0.024-0.062,0.043-0.096,0.067
		c-0.058,0.005-0.093,0.034-0.099,0.095v0.002c-0.272,0.328-0.31,0.646,0.025,0.954c0.463,0.135,0.598,0.041,0.835-0.578
		c0.141-0.242,0.093-0.49,0.022-0.734v-0.017C223.577,36.771,223.476,36.876,223.378,36.964z"/>
	<path fill-rule="evenodd" clip-rule="evenodd" fill="#FFFFFF" d="M205.89,42.528c0.674-0.222,1.331-0.274,2.032-0.024
		c0.57,0.198,0.892,0.573,1.089,1.088c0.381,0.983-0.211,2.539-1.438,2.679c-0.041,0.009-0.074,0.052-0.113,0.075
		c-0.062-0.002-0.123-0.004-0.184-0.007c-0.607,0.199-1.133-0.071-1.574-0.396c-0.425-0.318-0.779-0.736-0.814-1.35
		c-0.03-0.562,0.133-1.048,0.413-1.515c0.03-0.007,0.044-0.029,0.043-0.056c0.034-0.039,0.069-0.078,0.102-0.117
		c0.06-0.055,0.118-0.114,0.175-0.168C205.724,42.688,205.833,42.644,205.89,42.528L205.89,42.528z M207.537,45.944
		c0.836-0.504,0.93-2.465,0.025-3.219c-0.4-0.336-1.016-0.272-1.336,0.124c-0.565,0.697-0.561,1.969-0.008,2.821
		c0.232,0.363,0.486,0.637,0.963,0.537C207.298,46.12,207.418,46.033,207.537,45.944z"/>
	<path fill-rule="evenodd" clip-rule="evenodd" fill="#FFFFFF" d="M213.582,45.015c0.008-0.335,0.02-0.664,0.027-0.998
		c0.084-0.179,0.16-0.362,0.139-0.565c0.037-0.082,0.076-0.166,0.115-0.249c0.279-0.146,0.422-0.466,0.725-0.584
		c0.156,0.022,0.201-0.115,0.285-0.2c0.08,0.011,0.146-0.006,0.193-0.073c0.092-0.014,0.182-0.031,0.275-0.043
		c0.029-0.012,0.062-0.027,0.094-0.037l0.004-0.001c0.32,0.024,0.639,0.045,0.957,0.068c0.522,0.07,0.729,0.474,0.901,0.886
		c0.165,0.397,0.089,0.498-0.336,0.5c-0.632,0.003-1.269,0.018-1.897-0.012c-0.404-0.022-0.494,0.141-0.482,0.507
		c0.039,1.227,1.088,1.987,2.146,1.557c0.221-0.089,0.303-0.347,0.553-0.373c0.154,0.238-0.135,0.303-0.178,0.466l-0.011,0.007
		c-0.823,0.594-1.679,0.698-2.601,0.229c-0.297-0.148-0.432-0.475-0.727-0.616l0.006,0.002
		C213.712,45.323,213.748,45.132,213.582,45.015z M215.419,43.449c0,0.005,0,0.01,0,0.014c0.215-0.016,0.436-0.017,0.645-0.056
		c0.229-0.04,0.408-0.163,0.396-0.431c-0.011-0.25-0.168-0.4-0.396-0.451c-0.396-0.091-0.768-0.044-1.068,0.265
		c-0.15,0.159-0.334,0.354-0.264,0.556c0.072,0.2,0.33,0.073,0.504,0.102C215.296,43.457,215.361,43.449,215.419,43.449z"/>
	<path fill-rule="evenodd" clip-rule="evenodd" fill="#FFFFFF" d="M223.558,45.685c0.551,0.4,1.109,0.135,1.679,0.021
		c-0.313,0.509-0.836,0.624-1.347,0.678c-0.898,0.095-1.702-0.406-2.004-1.176c-0.343-0.873-0.099-1.872,0.59-2.438
		c0.093-0.079,0.188-0.156,0.288-0.231c0.086-0.034,0.172-0.071,0.258-0.108c0.66-0.233,1.307-0.199,1.939,0.108
		c0.069,0.076,0.149,0.151,0.22,0.233c0.194,0.243,0.418,0.529,0.281,0.826c-0.106,0.247-0.442,0.109-0.673,0.116
		c-0.554,0.014-1.108,0.013-1.663,0c-0.297-0.007-0.42,0.105-0.409,0.401C222.736,44.782,222.917,45.354,223.558,45.685z
		 M223.551,43.449c0.001,0.005,0.001,0.01,0.001,0.014c0.215-0.017,0.432-0.016,0.643-0.058c0.221-0.045,0.415-0.157,0.395-0.431
		c-0.015-0.245-0.163-0.403-0.396-0.45c-0.342-0.067-0.684-0.069-0.969,0.172c-0.193,0.169-0.45,0.381-0.354,0.646
		c0.081,0.217,0.386,0.069,0.59,0.106C223.486,43.454,223.519,43.449,223.551,43.449z"/>
	<path fill-rule="evenodd" clip-rule="evenodd" fill="#FFFFFF" d="M230.212,36.599c0.012-0.083,0.029-0.166,0.043-0.244
		c0.169-0.493,0.474-0.886,0.868-1.216c0.023,0.004,0.036-0.003,0.042-0.021c0.471-0.206,0.953-0.335,1.477-0.282
		c0.806,0.086,1.304,0.608,1.305,1.393l-0.005,0.005c-0.854-0.026-1.711,0.096-2.563-0.068c-0.184-0.037-0.319,0.103-0.265,0.276
		c0.056,0.181,0.048,0.358,0.073,0.536c0.098,0.736,0.571,1.276,1.244,1.432c0.438,0.107,0.825-0.089,1.241-0.215
		c-0.019,0.202-0.121,0.309-0.244,0.398c-0.733,0.526-1.997,0.413-2.656-0.207C230.247,37.885,230.205,37.258,230.212,36.599z
		 M232.025,35.976c0-0.002,0-0.004,0-0.006c0.182,0,0.369,0.012,0.552-0.002c0.248-0.023,0.445-0.12,0.471-0.41
		c0.019-0.276-0.143-0.419-0.385-0.495c-0.39-0.124-0.972,0.047-1.203,0.369c-0.098,0.135-0.203,0.305-0.133,0.464
		c0.06,0.14,0.248,0.062,0.378,0.078C231.809,35.982,231.919,35.976,232.025,35.976z"/>
	<path fill-rule="evenodd" clip-rule="evenodd" fill="#FFFFFF" d="M213.564,46.309c-0.688,0-1.375,0-2.046,0
		c-0.044-0.103-0.017-0.173,0.046-0.182c0.561-0.088,0.537-0.487,0.533-0.918c-0.02-1.157-0.016-2.313-0.008-3.471
		c0.006-0.371-0.115-0.597-0.508-0.619c0.002-0.052,0.004-0.102,0.006-0.151c0.32-0.104,0.652-0.179,0.959-0.321
		c0.334-0.154,0.422-0.072,0.416,0.278c-0.02,1.472-0.025,2.946-0.027,4.421c-0.002,0.178-0.055,0.367,0.074,0.53
		C213.238,45.967,213.535,45.968,213.564,46.309z"/>
	<path fill-rule="evenodd" clip-rule="evenodd" fill="#FFFFFF" d="M199.962,38.918c-0.125,0-0.25,0-0.373,0
		c-0.062-0.09-0.162-0.066-0.25-0.069c-0.349-0.02-0.697-0.001-1.042,0.065c-0.114,0.025-0.238-0.016-0.257-0.131
		c-0.016-0.1,0.104-0.131,0.198-0.143c0.134-0.023,0.273-0.031,0.339-0.18v-0.002c0.072-0.05,0.094-0.118,0.094-0.198
		c0-0.691,0.002-1.382-0.002-2.072c-0.002-0.218-0.075-0.4-0.331-0.425c-0.075-0.009-0.163-0.025-0.185-0.111
		c-0.022-0.093,0.061-0.129,0.131-0.154c0.312-0.126,0.627-0.246,0.889-0.473c0.077-0.066,0.162-0.178,0.277-0.11
		c0.114,0.067,0.061,0.198,0.062,0.297c0.003,0.952,0.008,1.903-0.001,2.854c-0.004,0.384,0.147,0.585,0.543,0.564
		c0.025,0.03,0.053,0.063,0.078,0.098C200.074,38.789,200.018,38.856,199.962,38.918z"/>
	<path fill-rule="evenodd" clip-rule="evenodd" fill="#FFFFFF" d="M198.634,33.638c0.037-0.051,0.07-0.102,0.105-0.152
		c0.328-0.172,0.624-0.182,0.793,0.207c0.116,0.271-0.005,0.474-0.263,0.587c-0.165,0.076-0.33,0.002-0.492-0.024
		c-0.104-0.154-0.198-0.31-0.194-0.503C198.599,33.714,198.617,33.677,198.634,33.638z"/>
	<path fill-rule="evenodd" clip-rule="evenodd" fill="#FFFFFF" d="M211.998,33.636c0.135-0.009,0.145-0.212,0.291-0.192
		c0.229,0.021,0.523-0.076,0.611,0.263c0.066,0.255-0.016,0.475-0.266,0.567c-0.342,0.128-0.559-0.042-0.684-0.357
		c-0.004-0.036-0.01-0.072-0.015-0.108C211.957,33.752,211.977,33.697,211.998,33.636L211.998,33.636z"/>
	<path fill-rule="evenodd" clip-rule="evenodd" fill="#FFFFFF" d="M210.666,40.533c-0.076,1.476-0.033,2.957-0.043,4.435
		c-0.002,0.516-0.18,1.128,0.67,1.201c-0.174,0.239-0.354,0.144-0.508,0.151c-0.355,0.013-0.709,0.008-1.064-0.004
		c-0.174-0.005-0.454,0.106-0.499-0.062c-0.062-0.229,0.239-0.144,0.372-0.214c0.167-0.088,0.189-0.226,0.189-0.387
		c0-1.34-0.003-2.681,0.004-4.025c0.001-0.33-0.193-0.481-0.488-0.644c0.456-0.149,0.91-0.306,1.364-0.456l0.034-0.03
		L210.666,40.533z"/>
	<path fill-rule="evenodd" clip-rule="evenodd" fill="#FFFFFF" d="M229.679,38.631c-0.076-0.007-0.148,0.009-0.198,0.072
		c-0.09,0.023-0.188,0.026-0.268,0.067c-0.338,0.176-0.621,0.233-0.648-0.306c-0.37,0.188-0.668,0.445-1.075,0.459
		c-0.774,0.033-1.474-0.377-1.782-1.082c-0.355-0.813-0.176-1.813,0.443-2.396c0.584-0.54,1.267-0.755,2.045-0.534
		c0.293,0.083,0.398,0.022,0.378-0.285c-0.02-0.196-0.003-0.399-0.005-0.602c0-0.107-0.032-0.2-0.106-0.294
		c-0.093-0.12-0.39-0.013-0.339-0.222c0.053-0.192,0.321-0.173,0.491-0.187c0.277-0.028,0.54-0.422,0.767-0.182
		c0.139,0.146,0.028,0.527,0.028,0.801c0,1.328-0.004,2.655,0.004,3.982c0.001,0.18-0.116,0.449,0.271,0.452
		C229.833,38.377,229.682,38.537,229.679,38.631z M228.586,36.898c-0.002,0-0.003,0-0.005,0c0-0.319,0.015-0.646-0.004-0.965
		c-0.026-0.361-0.099-0.712-0.5-0.849c-0.393-0.135-0.749-0.071-1.069,0.216c-0.686,0.622-0.74,2.068-0.09,2.734
		c0.312,0.313,0.699,0.443,1.138,0.389c0.348-0.045,0.565-0.201,0.534-0.601C228.571,37.518,228.586,37.205,228.586,36.898z"/>
</g>
<text transform="matrix(1 0 0 1 173.5425 28.3535)" fill="#FFFFFF" font-family="'Helvetica-Light'" font-size="12">+</text>
</svg>
