<?xml version="1.0" encoding="utf-8"?>
<!-- Generator: Adobe Illustrator 16.0.0, SVG Export Plug-In . SVG Version: 6.00 Build 0)  -->
<!DOCTYPE svg PUBLIC "-//W3C//DTD SVG 1.1//EN" "http://www.w3.org/Graphics/SVG/1.1/DTD/svg11.dtd">
<svg version="1.1" id="Layer_1" xmlns="http://www.w3.org/2000/svg" xmlns:xlink="http://www.w3.org/1999/xlink" x="0px" y="0px"
	 width="169.507px" height="50.66px" viewBox="0 0 169.507 50.66" enable-background="new 0 0 169.507 50.66" xml:space="preserve">
<g id="Logo_1_">
	<g id="Logo">
		<path fill="#F1F2F2" d="M24.638,39.044l0.231-0.016c0.004,0,0.008-0.002,0.011-0.003l0.271-0.021
			c2.122-0.154,3.701-0.781,4.738-1.884c1.035-1.103,1.48-2.657,1.335-4.665l-1.297-17.844c-0.142-1.971-0.808-3.441-1.995-4.421
			c-1.188-0.978-2.841-1.39-4.964-1.235l-3.691,0.268l2.039,28.08L12.484,37.9L9.995,3.624L4.754,6.689l5.61,37.72l2.529,1.502
			l0.172-0.014l-0.438-6.042L24.638,39.044z"/>
		<path fill="#F1F2F2" d="M52.255,9.617c0.332-0.109,0.792-0.186,1.384-0.229c0.703-0.053,1.378,0.006,2.026,0.172
			c0.584,0.15,1.107,0.392,1.578,0.715l-0.456-6.271L52.16,9.494L52.255,9.617z"/>
		<path fill="#F1F2F2" d="M58.182,23.224c-0.173,0.197-0.362,0.388-0.568,0.562c-1.468,1.239-3.465,1.952-5.996,2.135
			c-1.604,0.116-2.947,0.021-4.03-0.285s-1.962-0.75-2.643-1.33c-0.678-0.582-1.172-1.264-1.483-2.041
			c-0.312-0.781-0.498-1.596-0.56-2.446c-0.037-0.532-0.02-1.067,0.054-1.608c0.072-0.539,0.192-1.061,0.353-1.563l4.769-0.347
			c-0.092,0.306-0.155,0.695-0.191,1.168c-0.036,0.474-0.033,0.986,0.006,1.539c0.029,0.404,0.106,0.799,0.234,1.187
			s0.328,0.72,0.604,1c0.274,0.278,0.637,0.498,1.087,0.657c0.449,0.16,0.999,0.216,1.645,0.171
			c0.984-0.072,1.736-0.335,2.255-0.789c0.518-0.454,0.743-1.161,0.674-2.117l-0.372-5.104c-0.051-0.701-0.357-1.221-0.918-1.555
			c-0.562-0.332-1.166-0.476-1.812-0.429c-0.958,0.069-1.875,0.308-2.75,0.711l-1.764,0.804l-0.204-2.808l5.274-6.801L42.9,4.583
			l-0.233-3.217L27.599,2.405c0.435,0.058,0.86,0.126,1.275,0.209c1.944,0.392,3.631,1.065,5.059,2.025
			c1.427,0.96,2.573,2.233,3.443,3.823c0.865,1.586,1.381,3.493,1.543,5.719l1.255,17.295c0.164,2.265-0.067,4.242-0.696,5.938
			c-0.629,1.697-1.58,3.122-2.854,4.279c-1.274,1.156-2.845,2.068-4.712,2.734c-0.058,0.021-0.118,0.039-0.177,0.06l27.843-2.099
			L58.182,23.224z"/>
	</g>
	<text transform="matrix(0.9324 0 0 1 64.3755 22.4385)" fill="#F1F2F2" font-family="'Bebas'" font-size="20.5649">A</text>
	<text transform="matrix(0.9324 0 0 1 75.8301 22.4385)" fill="#F1F2F2" font-family="'Bebas'" font-size="20.5649">R</text>
	<text transform="matrix(0.9324 0 0 1 85.8315 22.4385)" fill="#F1F2F2" font-family="'Bebas'" font-size="20.5649">T+ </text>
	<text transform="matrix(0.9324 0 0 1 107.9487 22.4385)" fill="#F1F2F2" font-family="'Bebas'" font-size="20.5649">D</text>
	<text transform="matrix(0.9324 0 0 1 118.2866 22.4385)" fill="#F1F2F2" font-family="'Bebas'" font-size="20.5649">E</text>
	<text transform="matrix(0.9324 0 0 1 127.3843 22.4385)" fill="#F1F2F2" font-family="'Bebas'" font-size="20.5649">S</text>
	<text transform="matrix(0.9324 0 0 1 138.0288 22.4385)" fill="#F1F2F2" font-family="'Bebas'" font-size="20.5649">I</text>
	<text transform="matrix(0.9324 0 0 1 142.8726 22.4385)" fill="#F1F2F2" font-family="'Bebas'" font-size="20.5649">G</text>
	<text transform="matrix(0.9324 0 0 1 153.2593 22.4385)" fill="#F1F2F2" font-family="'Bebas'" font-size="20.5649">N</text>
	<text transform="matrix(0.9795 0 0 1 65.2451 35.5601)" fill="#F1F2F2" font-family="'Bebas'" font-size="8.8872">C</text>
	<text transform="matrix(0.9795 0 0 1 70.5356 35.5601)" fill="#F1F2F2" font-family="'Bebas'" font-size="8.8872">O</text>
	<text transform="matrix(0.9795 0 0 1 75.9136 35.5601)" fill="#F1F2F2" font-family="'Bebas'" font-size="8.8872">N</text>
	<text transform="matrix(0.9795 0 0 1 81.6367 35.5601)" fill="#F1F2F2" font-family="'Bebas'" font-size="8.8872">FE</text>
	<text transform="matrix(0.9795 0 0 1 91.1841 35.5601)" fill="#F1F2F2" font-family="'Bebas'" font-size="8.8872">R</text>
	<text transform="matrix(0.9795 0 0 1 96.7515 35.5601)" fill="#F1F2F2" font-family="'Bebas'" font-size="8.8872">E</text>
	<text transform="matrix(0.9795 0 0 1 101.5259 35.5601)" fill="#F1F2F2" font-family="'Bebas'" font-size="8.8872">N</text>
	<text transform="matrix(0.9795 0 0 1 107.2319 35.5601)" fill="#F1F2F2" font-family="'Bebas'" font-size="8.8872">C</text>
	<text transform="matrix(0.9795 0 0 1 112.5405 35.5601)" fill="#F1F2F2" font-family="'Bebas'" font-size="8.8872">E</text>
	<text transform="matrix(0.9795 0 0 1 76.7451 46.2261)" fill="#F1F2F2" font-family="'Bebas'" font-size="8.8872">A</text>
	<text transform="matrix(0.9795 0 0 1 82.5986 46.2261)" fill="#F1F2F2" font-family="'Bebas'" font-size="8.8872">N</text>
	<text transform="matrix(0.9795 0 0 1 88.3208 46.2261)" fill="#F1F2F2" font-family="'Bebas'" font-size="8.8872">D  </text>
	<text transform="matrix(0.9795 0 0 1 101.1108 46.2261)" fill="#F1F2F2" font-family="'Bebas'" font-size="8.8872">X</text>
	<text transform="matrix(0.9795 0 0 1 96.3618 46.2261)" fill="#F1F2F2" font-family="'Bebas'" font-size="8.8872">E</text>
	<text transform="matrix(0.9795 0 0 1 107.0444 46.2261)" fill="#F1F2F2" font-family="'Bebas'" font-size="8.8872">P</text>
	<text transform="matrix(0.9795 0 0 1 112.1626 46.2261)" fill="#F1F2F2" font-family="'Bebas'" font-size="8.8872">O</text>
	<text transform="matrix(1.0017 0 0 1 119.7544 45.8511)" fill="#F1F2F2" font-family="'Bebas'" font-size="23.0896">2</text>
	<text transform="matrix(1.0017 0 0 1 132.4233 45.8511)" fill="#F1F2F2" font-family="'Bebas'" font-size="23.0896">0</text>
	<text transform="matrix(1.0017 0 0 1 144.769 45.8511)" fill="#F1F2F2" font-family="'Bebas'" font-size="23.0896">1</text>
	<text transform="matrix(1.0017 0 0 1 153.2554 45.8511)" fill="#F1F2F2" font-family="'Bebas'" font-size="23.0896">6</text>
</g>
</svg>
