<?xml version="1.0" encoding="utf-8"?>
<!-- Generator: Adobe Illustrator 16.0.0, SVG Export Plug-In . SVG Version: 6.00 Build 0)  -->
<!DOCTYPE svg PUBLIC "-//W3C//DTD SVG 1.1//EN" "http://www.w3.org/Graphics/SVG/1.1/DTD/svg11.dtd">
<svg version="1.1" id="Layer_1" xmlns="http://www.w3.org/2000/svg" xmlns:xlink="http://www.w3.org/1999/xlink" x="0px" y="0px"
	 width="55.033px" height="48.186px" viewBox="0 0 55.033 48.186" enable-background="new 0 0 55.033 48.186" xml:space="preserve">
<g>
	<path fill-rule="evenodd" clip-rule="evenodd" fill="#FFFFFF" d="M21.756,27.953c-0.155,0.196-0.273,0.424-0.357,0.66
		c-0.087,0.072-0.131,0.166-0.154,0.274c-0.01,0.026-0.022,0.059-0.033,0.09c-0.083,0.061-0.126,0.146-0.132,0.254l0.008-0.011
		c-0.021,0.041-0.041,0.082-0.061,0.122c-0.063,0.063-0.126,0.12-0.188,0.177c-4.965-0.002-9.929-0.005-14.894-0.007
		c-0.021-0.031-0.042-0.057-0.062-0.088c0.009-0.15,0.026-0.306,0.026-0.461c0.001-8.975,0-17.951,0-26.928
		c0-0.123-0.003-0.246,0.002-0.37c0.015-0.301,0.161-0.18,0.295-0.087c0.041,0.079,0.099,0.094,0.172,0.046
		c0,0,0.013-0.001,0.013-0.001c-0.03-0.008-0.058-0.018-0.084-0.026C6.167,1.752,6.32,1.837,6.393,1.942
		c0.748,1.417,1.496,2.834,2.244,4.251c0.148,0.354,0.314,0.698,0.539,1.013C9.24,7.332,9.304,7.457,9.368,7.58
		c0.156,0.355,0.313,0.709,0.546,1.022c0.021,0.036,0.043,0.07,0.064,0.105c0.172,0.457,0.404,0.882,0.672,1.289
		c0.012,0.029,0.023,0.061,0.036,0.091c-0.016,0.055,0.012,0.078,0.059,0.088l0,0c0.534,1.121,1.111,2.22,1.738,3.289
		c0.201,0.384,0.399,0.769,0.598,1.153c0.333,0.64,0.655,1.284,0.994,1.918c0.833,1.556,1.607,3.143,2.499,4.667l-0.001-0.005
		c0.1,0.311,0.256,0.591,0.451,0.85l-0.003-0.001c0.114,0.327,0.273,0.63,0.48,0.911l0-0.002c0.027,0.423,0.37,0.678,0.54,1.021
		c0.013,0.03,0.023,0.061,0.037,0.085c0.217,0.471,0.427,0.945,0.733,1.368l0.02,0.021c0.109,0.371,0.308,0.703,0.522,1.027l0-0.006
		c0.421,0.829,0.839,1.652,1.26,2.476c0.033-0.01,0.068-0.022,0.104-0.036c0-0.12,0-0.234,0-0.355
		c0-8.886,0.001-17.769-0.007-26.655c0-0.329,0.027-0.498,0.435-0.497c4.258,0.016,8.515,0.01,12.771,0.013
		c1.374,0,2.745-0.014,4.108,0.216c1.27,0.213,2.465,0.654,3.646,1.137c1.51,0.774,2.849,1.773,4.035,2.976
		c0.476,0.585,0.951,1.173,1.425,1.758c0.968,1.535,1.743,3.157,2.086,4.948c0.999,5.239-0.526,9.675-4.368,13.319
		c-1.429,1.36-3.172,2.23-5.029,2.868c-1.342,0.463-2.732,0.689-4.157,0.698c-0.009-0.184-0.017-0.367-0.017-0.556
		c0-8.848,0-17.701-0.004-26.552c0-0.151,0.074-0.33-0.105-0.489c-0.251,0.308-0.296,0.685-0.461,1.003h0.003
		c-0.48,0.78-0.901,1.592-1.283,2.424l0.001-0.002c-0.418,0.655-0.755,1.351-1.095,2.046c-1.302,2.467-2.602,4.933-3.901,7.4
		c-0.188,0.214-0.296,0.47-0.384,0.734l0.003-0.002c-0.714,1.203-1.347,2.45-1.974,3.699c-0.019,0.037-0.034,0.075-0.052,0.109
		c-0.499,0.955-1.118,1.844-1.497,2.859h0.001c-0.585,0.958-1.094,1.958-1.574,2.973c-0.126,0.132-0.229,0.271-0.17,0.472
		c-0.063,0.041-0.152,0.063-0.183,0.125C22.562,26.369,22.161,27.158,21.756,27.953z"/>
	<path fill-rule="evenodd" clip-rule="evenodd" fill="#FFFFFF" d="M6.399,34.349c0.001-0.086,0.003-0.171,0.005-0.257
		c0.105-0.294,0.059-0.6,0.066-0.899c0.019-0.739,0.014-0.739-0.722-0.795h0c-0.008-0.06-0.016-0.126-0.022-0.186l0.012-0.016
		c0.26,0.004,0.53,0.051,0.778,0c0.705-0.146,1.16,0.086,1.345,0.795c0.251,0.855,0.61,1.666,1.022,2.453
		c0.077,0.152,0.131,0.244,0.289,0.104c0.393-0.706,0.633-1.474,0.907-2.222c0.071-0.181,0.14-0.366,0.21-0.547
		c0.186-0.226,0.15-0.653,0.629-0.612c0.428,0.037,0.862,0.005,1.294,0.004c0.132,0.069,0.049,0.139,0.005,0.213
		c-0.774,0.07-0.774,0.07-0.651,0.688c0.005,0.177,0.009,0.354,0.013,0.53c0.004,0.248,0.011,0.496,0.016,0.744
		c0.002,0.151,0.005,0.308,0.008,0.458c0.016,0.584,0.055,1.163,0.04,1.746c-0.013,0.487,0.042,0.884,0.648,0.913
		c0.011,0,0.017,0.051,0.038,0.127c-0.495,0.139-1.005-0.07-1.489,0.059c-0.183-0.003-0.365-0.006-0.548-0.006
		c-0.152,0-0.318,0.027-0.351-0.188c0.751-0.187,0.75-0.187,0.738-0.98c-0.009-0.614-0.019-1.235-0.023-1.85
		c-0.003-0.493,0-0.989,0-1.481c-0.13,0.042-0.159,0.09-0.18,0.141c-0.521,1.308-1.042,2.62-1.559,3.928
		c-0.043,0.113-0.04,0.27-0.202,0.271c-0.158,0.001-0.181-0.154-0.226-0.26c-0.244-0.583-0.48-1.169-0.721-1.748
		c-0.305-0.731-0.611-1.463-0.916-2.194c-0.194,1.21-0.235,2.404-0.168,3.6c0.012,0.195,0.034,0.406,0.28,0.481
		c0.11,0.033,0.281,0.042,0.213,0.216c-0.053,0.135-0.2,0.105-0.325,0.079c-0.399-0.099-0.796-0.029-1.194,0.011
		c-0.185-0.137-0.199-0.258,0.039-0.342c0.14-0.047,0.282-0.081,0.423-0.122c0.166-0.061,0.151-0.225,0.158-0.347
		c0.044-0.65,0.07-1.303,0.103-1.955c0.002-0.097,0.006-0.188,0.009-0.279C6.392,34.531,6.396,34.44,6.399,34.349z"/>
	<path fill-rule="evenodd" clip-rule="evenodd" fill="#FFFFFF" d="M30.663,32.847c-0.11-0.463-0.606,0.043-0.802-0.392
		c1.549-0.346,3.054-0.533,4.546,0.15c0.17,0.137,0.34,0.279,0.511,0.417c0.191,0.076,0.253,0.256,0.345,0.407
		c0.365,0.598,0.474,1.247,0.415,1.934c-0.007,0.062-0.015,0.119-0.026,0.176c-0.099,0.172-0.171,0.358-0.194,0.553l0.002-0.003
		c-0.089,0.039-0.109,0.12-0.119,0.204c-0.609,1.015-1.585,1.321-2.681,1.352c-0.767,0.026-1.537,0.007-2.306,0
		c-0.131-0.001-0.33,0.059-0.358-0.106c-0.031-0.2,0.179-0.158,0.303-0.179c0.261-0.048,0.428-0.17,0.373-0.468
		c0.117-0.937,0.038-1.876,0.044-2.814C30.721,33.67,30.796,33.25,30.663,32.847z M31.669,34.828c0,0.536-0.001,1.078,0,1.614
		c0.002,0.837,0.352,1.111,1.167,0.931c1.201-0.268,1.942-1.419,1.794-2.785c-0.141-1.295-1.134-2.201-2.374-2.192
		c-0.408,0.003-0.596,0.174-0.588,0.585C31.677,33.594,31.67,34.208,31.669,34.828z"/>
	<path fill-rule="evenodd" clip-rule="evenodd" fill="#FFFFFF" d="M32.708,43.395c-0.425-0.23-0.551-0.625-0.527-1.068
		c0.025-0.477,0.218-0.869,0.704-1.052c0.152-0.059,0.304-0.126,0.456-0.189c0.401-0.055,0.799-0.07,1.195,0.03l-0.001-0.002
		c0.014,0.053,0.042,0.083,0.102,0.069c0.392,0.145,0.785,0.263,1.21,0.174c0.119,0.009,0.215,0.043,0.192,0.189
		c-0.016,0.134-0.116,0.121-0.206,0.115c-0.332-0.028-0.331,0.128-0.252,0.393c0.154,0.537-0.021,0.821-0.425,1.188
		c-0.44,0.395-0.921,0.472-1.466,0.452c-0.208-0.005-0.458,0.052-0.433,0.355c0.02,0.283,0.263,0.204,0.432,0.217
		c0.519,0.031,1.044-0.055,1.561,0.084c0.368,0.099,0.721,0.23,0.832,0.633c0.113,0.389-0.032,0.727-0.304,1.016
		c-0.277,0.301-0.629,0.483-1.017,0.61c-0.745,0.246-1.489,0.194-2.236,0.032l-0.001,0.003c-0.783-0.576-0.764-1.037,0.075-1.508
		c0.269-0.151,0.346-0.247,0.049-0.463c-0.244-0.178-0.571-0.376-0.312-0.776l-0.002,0.002c0.141-0.043,0.301-0.056,0.421-0.134
		C32.949,43.637,32.987,43.483,32.708,43.395z M34.034,46.534c0.342-0.016,0.669-0.078,0.964-0.265
		c0.252-0.158,0.412-0.38,0.374-0.688c-0.042-0.337-0.312-0.448-0.594-0.482c-0.393-0.049-0.799-0.022-1.191-0.077
		c-0.363-0.052-0.605,0.065-0.728,0.393c-0.137,0.366-0.015,0.665,0.3,0.882C33.42,46.477,33.721,46.526,34.034,46.534z
		 M33.145,42.411c-0.011,0.182,0.017,0.42,0.144,0.643c0.324,0.572,0.846,0.6,1.228,0.065c0.248-0.348,0.293-1.309-0.167-1.707
		c-0.072-0.061-0.135-0.103-0.23-0.129C33.554,41.142,33.147,41.578,33.145,42.411z"/>
	<path fill-rule="evenodd" clip-rule="evenodd" fill="#FFFFFF" d="M17.827,45.16c-0.045,0.002-0.09,0.005-0.135,0.007
		c-0.062,0.005-0.123,0.009-0.185,0.012c-1.016-0.005-1.917-0.26-2.664-1.025c-1.31-1.348-0.74-3.298,0.621-4.081
		c1.126-0.648,2.315-0.629,3.522-0.262c0.06,0.308,0.121,0.614,0.178,0.921l-0.02,0.024c0,0,0.014,0.021,0.014,0.021
		c-0.277,0.133-0.363-0.111-0.455-0.262c-0.663-1.054-2.082-0.813-2.717-0.109c-0.87,0.961-0.949,2.612-0.147,3.663l0,0
		c0.017,0.098,0.072,0.168,0.167,0.203h0c0.28,0.561,0.806,0.626,1.343,0.635c0.486,0.012,0.901-0.146,1.105-0.639
		c0.031,0.005,0.054-0.008,0.072-0.028c0.2-0.113,0.241-0.34,0.37-0.505c0.048-0.06,0.098-0.125,0.184-0.104
		c0.099,0.021,0.079,0.11,0.087,0.185c0.081,0.688-0.115,0.989-0.775,1.183C18.206,45.055,18.016,45.107,17.827,45.16z"/>
	<path fill-rule="evenodd" clip-rule="evenodd" fill="#FFFFFF" d="M27.789,37.673c-0.125-0.005-0.25-0.011-0.375-0.017
		c-0.185-0.056-0.373-0.077-0.564-0.024c-0.089,0.005-0.178,0.011-0.27,0.02c-0.88-0.069-1.77,0.055-2.698-0.15
		c0.454-0.102,0.432-0.428,0.433-0.737c0.001-0.464-0.023-0.928,0.005-1.385c0.08-1.214-0.286-1.586-1.527-1.116l-0.02-0.023
		c0.002-0.203,0.16-0.271,0.3-0.361c0.617-0.394,1.229-0.389,1.843,0.005c0.068,0.124,0.136,0.247,0.207,0.367
		c0.108,0.89,0.043,1.784,0.044,2.675c0.001,0.462,0.316,0.562,0.603,0.564c0.186,0.001,0.484-0.03,0.636-0.258l0.007-0.007
		c0.027-0.055,0.079-0.104,0.08-0.154c0.009-0.723,0.012-1.446,0.01-2.164c0-0.186-0.066-0.331-0.273-0.373
		c-0.087-0.016-0.188-0.025-0.181-0.159c0.004-0.128,0.111-0.137,0.19-0.162c0.248-0.083,0.473-0.22,0.693-0.358
		c0.109-0.066,0.198-0.25,0.34-0.177c0.162,0.083,0.076,0.28,0.077,0.423c0.011,0.919,0.008,1.843,0.012,2.762
		c0.001,0.341,0.116,0.575,0.518,0.519c0.135,0.1,0.097,0.196-0.004,0.29C27.846,37.671,27.817,37.672,27.789,37.673z"/>
	<path fill-rule="evenodd" clip-rule="evenodd" fill="#FFFFFF" d="M19.267,37.664c-0.063,0.002-0.125,0.004-0.188,0.006
		c-0.09-0.007-0.18-0.014-0.271-0.025l-0.03-0.008c-0.095-0.219,0.073-0.227,0.207-0.25c0.275-0.038,0.395-0.184,0.391-0.466
		c-0.009-0.697-0.003-1.39-0.003-2.083c0-0.255-0.089-0.422-0.384-0.385c-0.061-0.048-0.14-0.145-0.064-0.179
		c0.454-0.198,0.767-0.628,1.259-0.756c0,0.221,0,0.441,0,0.748c0.139-0.122,0.196-0.167,0.249-0.215
		c0.74-0.669,1.417-0.643,2.101,0.078c0.071,0.071,0.148,0.099,0.239,0.109l0.02,0.023c-0.192,0.886-0.067,1.787-0.096,2.685
		c-0.01,0.254,0.099,0.403,0.358,0.438c0.153,0.025,0.341,0.041,0.173,0.277c-0.116,0.001-0.235,0.001-0.351,0.001
		c-0.238-0.087-0.487-0.05-0.73-0.062c-0.308-0.011-0.66,0.011-0.323-0.46c0.039-0.058,0.027-0.151,0.027-0.229
		c0.001-0.674,0.006-1.352-0.003-2.03c-0.002-0.228-0.04-0.462-0.267-0.596c-0.012-0.028-0.034-0.046-0.067-0.045
		c-0.659-0.357-1.273-0.037-1.294,0.691c-0.011,0.45-0.003,0.895,0.002,1.342c0.009,0.508-0.192,1.125,0.662,1.257
		C20.318,37.711,19.778,37.504,19.267,37.664z"/>
	<path fill-rule="evenodd" clip-rule="evenodd" fill="#FFFFFF" d="M15.094,36.661c0.023-0.02,0.028-0.043,0.017-0.069
		c0.319-0.512,0.8-0.823,1.349-1.016c0.484-0.167,0.795-0.4,0.666-0.967c-0.015-0.074,0.003-0.156-0.005-0.232
		c-0.025-0.229-0.045-0.478-0.319-0.557c-0.286-0.078-0.511,0.039-0.672,0.277c-0.086,0.125-0.153,0.263-0.217,0.4
		c-0.164,0.353-0.425,0.507-0.813,0.419c-0.02-0.039-0.041-0.078-0.061-0.116c0.018-0.025,0.017-0.054-0.003-0.082
		c0.01-0.024,0.021-0.055,0.03-0.085c0.135-0.188,0.267-0.379,0.399-0.569l0.003-0.003c0.537-0.384,1.135-0.524,1.788-0.461
		c0.52,0.056,0.709,0.25,0.713,0.771c0.005,0.771-0.004,1.541,0.004,2.312c0.001,0.143-0.055,0.335,0.11,0.42
		c0.181,0.092,0.36,0.038,0.494-0.125c0.045,0.017,0.09,0.039,0.136,0.056c-0.322,0.652-1.06,0.881-1.377,0.382
		c-0.274-0.432-0.457-0.335-0.71-0.037c-0.025-0.004-0.041,0.006-0.044,0.033c-0.409,0.21-0.82,0.399-1.287,0.164l0.003,0.002
		C15.088,37.3,15.08,36.984,15.094,36.661z M17.04,36.168c-0.047-0.106,0.116-0.347-0.094-0.432
		c-0.204-0.082-0.419,0.014-0.592,0.164c-0.034,0.025-0.067,0.06-0.102,0.088c-0.336,0.236-0.282,0.577-0.208,0.903
		c0.032,0.142,0.173,0.274,0.35,0.227c0.344-0.092,0.581-0.312,0.667-0.666C17.078,36.38,17.052,36.298,17.04,36.168z"/>
	<path fill-rule="evenodd" clip-rule="evenodd" fill="#FFFFFF" d="M37.405,37.581c-0.666,0.187-0.944,0.127-1.125-0.252
		c-0.214-0.44-0.057-0.942,0.433-1.279c0.265-0.18,0.555-0.33,0.849-0.468c0.683-0.307,0.79-0.491,0.661-1.219
		c-0.102-0.59-0.382-0.698-0.896-0.361c-0.191,0.155-0.257,0.382-0.311,0.611c-0.02,0.033-0.043,0.063-0.062,0.098
		c-0.032,0.033-0.064,0.066-0.098,0.095c-0.028,0.025-0.062,0.046-0.097,0.071c-0.101,0.004-0.201,0.025-0.273,0.098
		c-0.058,0.002-0.11,0.003-0.163,0.005c-0.2-0.155-0.13-0.327-0.04-0.519c0.117-0.235,0.353-0.357,0.503-0.564l-0.001,0.001
		c0.493-0.232,1.009-0.356,1.562-0.301c0.553,0.062,0.726,0.243,0.728,0.801c0.003,0.771,0.001,1.54,0.002,2.311
		c0,0.153,0.002,0.327,0.165,0.402c0.171,0.079,0.331,0.021,0.438-0.143c0.023,0.017,0.04,0.015,0.055-0.011
		c0.087,0.062,0.072,0.154,0.077,0.239l-0.006,0.012c-0.335,0.299-0.679,0.574-1.172,0.432c-0.125-0.141-0.251-0.283-0.376-0.429
		c-0.204-0.278-0.27,0.011-0.389,0.089c-0.057,0.038-0.116,0.076-0.172,0.114C37.579,37.438,37.483,37.491,37.405,37.581z
		 M37.869,35.727l0.003-0.002c-0.156,0.01-0.274,0.082-0.38,0.19c-0.034,0.024-0.062,0.043-0.096,0.067
		c-0.058,0.005-0.093,0.034-0.099,0.095v0.002c-0.272,0.328-0.31,0.646,0.025,0.954c0.463,0.135,0.598,0.041,0.835-0.578
		c0.141-0.242,0.093-0.49,0.022-0.734v-0.017C38.067,35.534,37.966,35.639,37.869,35.727z"/>
	<path fill-rule="evenodd" clip-rule="evenodd" fill="#FFFFFF" d="M20.38,41.291c0.674-0.222,1.331-0.274,2.032-0.024
		c0.57,0.198,0.891,0.573,1.089,1.088c0.38,0.983-0.211,2.539-1.438,2.679c-0.041,0.009-0.074,0.052-0.112,0.075
		c-0.062-0.002-0.124-0.004-0.185-0.007c-0.606,0.199-1.132-0.071-1.574-0.396c-0.424-0.318-0.779-0.736-0.814-1.35
		c-0.03-0.562,0.132-1.048,0.413-1.515c0.031-0.007,0.044-0.029,0.043-0.056c0.034-0.039,0.069-0.078,0.102-0.117
		c0.059-0.055,0.118-0.114,0.175-0.168C20.215,41.451,20.323,41.406,20.38,41.291L20.38,41.291z M22.027,44.707
		c0.836-0.504,0.929-2.465,0.025-3.219c-0.401-0.336-1.017-0.272-1.336,0.124c-0.566,0.697-0.561,1.969-0.009,2.821
		c0.233,0.363,0.487,0.637,0.963,0.537C21.789,44.883,21.909,44.796,22.027,44.707z"/>
	<path fill-rule="evenodd" clip-rule="evenodd" fill="#FFFFFF" d="M28.072,43.777c0.008-0.335,0.019-0.664,0.026-0.998
		c0.084-0.179,0.161-0.362,0.14-0.565c0.036-0.082,0.075-0.166,0.114-0.249c0.279-0.146,0.422-0.466,0.726-0.584
		c0.156,0.022,0.201-0.115,0.285-0.2c0.079,0.011,0.146-0.006,0.193-0.073c0.091-0.014,0.181-0.031,0.274-0.043
		c0.03-0.012,0.063-0.027,0.094-0.037l0.005-0.001c0.319,0.024,0.639,0.045,0.957,0.068c0.522,0.07,0.729,0.474,0.901,0.886
		c0.165,0.397,0.089,0.498-0.336,0.5c-0.632,0.003-1.268,0.018-1.898-0.012c-0.404-0.022-0.493,0.141-0.482,0.507
		c0.04,1.227,1.089,1.987,2.146,1.557c0.221-0.089,0.303-0.347,0.553-0.373c0.155,0.238-0.135,0.303-0.178,0.466l-0.01,0.007
		c-0.823,0.594-1.679,0.698-2.6,0.229c-0.298-0.148-0.432-0.475-0.727-0.616l0.005,0.002C28.203,44.086,28.238,43.895,28.072,43.777
		z M29.909,42.212c0.001,0.005,0.001,0.01,0.001,0.014c0.215-0.016,0.435-0.017,0.644-0.056c0.229-0.04,0.408-0.163,0.397-0.431
		c-0.011-0.25-0.169-0.4-0.397-0.451c-0.397-0.091-0.767-0.044-1.068,0.265c-0.151,0.159-0.335,0.354-0.264,0.556
		c0.072,0.2,0.33,0.073,0.504,0.102C29.787,42.22,29.851,42.212,29.909,42.212z"/>
	<path fill-rule="evenodd" clip-rule="evenodd" fill="#FFFFFF" d="M38.048,44.447c0.551,0.4,1.109,0.135,1.679,0.021
		c-0.313,0.509-0.836,0.624-1.347,0.678c-0.898,0.095-1.702-0.406-2.004-1.176c-0.343-0.873-0.099-1.872,0.59-2.438
		c0.093-0.079,0.188-0.156,0.288-0.231c0.086-0.034,0.172-0.071,0.258-0.108c0.66-0.233,1.307-0.199,1.939,0.108
		c0.069,0.076,0.149,0.151,0.22,0.233c0.194,0.243,0.418,0.529,0.281,0.826c-0.106,0.247-0.442,0.109-0.673,0.116
		c-0.554,0.014-1.108,0.013-1.663,0c-0.297-0.007-0.42,0.105-0.409,0.401C37.226,43.545,37.407,44.116,38.048,44.447z
		 M38.042,42.212c0.001,0.005,0.001,0.01,0.001,0.014c0.215-0.017,0.432-0.016,0.643-0.058c0.221-0.045,0.415-0.157,0.395-0.431
		c-0.015-0.245-0.163-0.403-0.396-0.45c-0.342-0.067-0.684-0.069-0.969,0.172c-0.193,0.169-0.45,0.381-0.354,0.646
		c0.081,0.217,0.386,0.069,0.59,0.106C37.976,42.217,38.009,42.212,38.042,42.212z"/>
	<path fill-rule="evenodd" clip-rule="evenodd" fill="#FFFFFF" d="M44.703,35.361c0.012-0.083,0.029-0.166,0.043-0.244
		c0.169-0.493,0.474-0.886,0.868-1.216c0.023,0.004,0.036-0.003,0.042-0.021c0.471-0.206,0.953-0.335,1.477-0.282
		c0.806,0.086,1.304,0.608,1.305,1.393l-0.005,0.005c-0.854-0.026-1.711,0.096-2.563-0.068c-0.184-0.037-0.319,0.103-0.265,0.276
		c0.056,0.181,0.048,0.358,0.073,0.536c0.098,0.736,0.571,1.276,1.244,1.432c0.438,0.107,0.825-0.089,1.241-0.215
		c-0.019,0.202-0.121,0.309-0.244,0.398c-0.733,0.526-1.997,0.413-2.656-0.207C44.737,36.647,44.695,36.021,44.703,35.361z
		 M46.515,34.738c0-0.002,0-0.004,0-0.006c0.182,0,0.369,0.012,0.552-0.002c0.248-0.023,0.445-0.12,0.471-0.41
		c0.019-0.276-0.143-0.419-0.385-0.495c-0.39-0.124-0.972,0.047-1.203,0.369c-0.098,0.135-0.203,0.305-0.133,0.464
		c0.06,0.14,0.248,0.062,0.378,0.078C46.299,34.745,46.41,34.738,46.515,34.738z"/>
	<path fill-rule="evenodd" clip-rule="evenodd" fill="#FFFFFF" d="M28.055,45.071c-0.688,0-1.375,0-2.046,0
		c-0.043-0.103-0.017-0.173,0.045-0.182c0.562-0.088,0.538-0.487,0.533-0.918c-0.019-1.157-0.016-2.313-0.007-3.471
		c0.005-0.371-0.116-0.597-0.508-0.619c0.002-0.052,0.003-0.102,0.005-0.151c0.321-0.104,0.653-0.179,0.959-0.321
		c0.335-0.154,0.422-0.072,0.417,0.278c-0.021,1.472-0.025,2.946-0.028,4.421c-0.001,0.178-0.055,0.367,0.075,0.53
		C27.728,44.729,28.024,44.73,28.055,45.071z"/>
	<path fill-rule="evenodd" clip-rule="evenodd" fill="#FFFFFF" d="M14.452,37.681c-0.125,0-0.249,0-0.373,0
		c-0.062-0.09-0.162-0.066-0.25-0.069c-0.349-0.02-0.697-0.001-1.042,0.065c-0.115,0.025-0.238-0.016-0.256-0.131
		c-0.016-0.1,0.104-0.131,0.198-0.143c0.134-0.023,0.273-0.031,0.339-0.18v-0.002c0.072-0.05,0.093-0.118,0.093-0.198
		c0-0.691,0.003-1.382-0.001-2.072c-0.001-0.218-0.075-0.4-0.331-0.425c-0.076-0.009-0.163-0.025-0.185-0.111
		c-0.022-0.093,0.061-0.129,0.13-0.154c0.312-0.126,0.628-0.246,0.89-0.473c0.077-0.066,0.161-0.178,0.277-0.11
		c0.114,0.067,0.061,0.198,0.061,0.297c0.003,0.952,0.008,1.903-0.001,2.854c-0.003,0.384,0.147,0.585,0.542,0.564
		c0.025,0.03,0.053,0.063,0.079,0.098C14.564,37.552,14.508,37.619,14.452,37.681z"/>
	<path fill-rule="evenodd" clip-rule="evenodd" fill="#FFFFFF" d="M13.125,32.4c0.037-0.051,0.07-0.102,0.106-0.152
		c0.327-0.172,0.624-0.182,0.792,0.207c0.117,0.271-0.004,0.474-0.262,0.587c-0.165,0.076-0.33,0.002-0.492-0.024
		c-0.104-0.154-0.198-0.31-0.195-0.503C13.09,32.477,13.107,32.439,13.125,32.4z"/>
	<path fill-rule="evenodd" clip-rule="evenodd" fill="#FFFFFF" d="M26.488,32.398c0.134-0.009,0.145-0.212,0.29-0.192
		c0.229,0.021,0.523-0.076,0.611,0.263c0.066,0.255-0.015,0.475-0.265,0.567c-0.343,0.128-0.559-0.042-0.685-0.357
		c-0.003-0.036-0.01-0.072-0.014-0.108C26.447,32.515,26.467,32.46,26.488,32.398L26.488,32.398z"/>
	<path fill-rule="evenodd" clip-rule="evenodd" fill="#FFFFFF" d="M25.156,39.296c-0.076,1.476-0.033,2.957-0.043,4.435
		c-0.003,0.516-0.181,1.128,0.669,1.201c-0.174,0.239-0.354,0.144-0.507,0.151c-0.355,0.013-0.709,0.008-1.065-0.004
		c-0.174-0.005-0.454,0.106-0.499-0.062c-0.062-0.229,0.239-0.144,0.372-0.214c0.167-0.088,0.19-0.226,0.19-0.387
		c0-1.34-0.003-2.681,0.003-4.025c0.001-0.33-0.193-0.481-0.488-0.644c0.456-0.149,0.91-0.306,1.364-0.456l0.035-0.03L25.156,39.296
		z"/>
	<path fill-rule="evenodd" clip-rule="evenodd" fill="#FFFFFF" d="M44.169,37.394c-0.076-0.007-0.148,0.009-0.198,0.072
		c-0.09,0.023-0.188,0.026-0.268,0.067c-0.338,0.176-0.621,0.233-0.648-0.306c-0.37,0.188-0.668,0.445-1.075,0.459
		c-0.774,0.033-1.474-0.377-1.782-1.082c-0.355-0.813-0.176-1.813,0.443-2.396c0.584-0.54,1.267-0.755,2.045-0.534
		c0.293,0.083,0.398,0.022,0.378-0.285c-0.02-0.196-0.003-0.399-0.005-0.602c0-0.107-0.032-0.2-0.106-0.294
		c-0.093-0.12-0.39-0.013-0.339-0.222c0.053-0.192,0.321-0.173,0.491-0.187c0.277-0.028,0.54-0.422,0.767-0.182
		c0.139,0.146,0.028,0.527,0.028,0.801c0,1.328-0.004,2.655,0.004,3.982c0.001,0.18-0.116,0.449,0.271,0.452
		C44.323,37.14,44.172,37.3,44.169,37.394z M43.077,35.661c-0.002,0-0.003,0-0.005,0c0-0.319,0.015-0.646-0.004-0.965
		c-0.026-0.361-0.099-0.712-0.5-0.849c-0.393-0.135-0.749-0.071-1.069,0.216c-0.686,0.622-0.74,2.068-0.09,2.734
		c0.312,0.313,0.699,0.443,1.138,0.389c0.348-0.045,0.565-0.201,0.534-0.601C43.061,36.28,43.077,35.968,43.077,35.661z"/>
</g>
</svg>
